<svg width="24" height="24" viewBox="0 0 24 24" fill="none" xmlns="http://www.w3.org/2000/svg">
  <path d="M12 2C6.47715 2 2 6.47715 2 12C2 17.5228 6.47715 22 12 22C17.5228 22 22 17.5228 22 12C22 6.47715 17.5228 2 12 2Z" stroke="#0078D4" stroke-width="2" stroke-linecap="round" stroke-linejoin="round"/>
  <path d="M12 16C14.2091 16 16 14.2091 16 12C16 9.79086 14.2091 8 12 8C9.79086 8 8 9.79086 8 12C8 14.2091 9.79086 16 12 16Z" stroke="#0078D4" stroke-width="2" stroke-linecap="round" stroke-linejoin="round"/>
  <path d="M12 2V4" stroke="#0078D4" stroke-width="2" stroke-linecap="round" stroke-linejoin="round"/>
  <path d="M12 20V22" stroke="#0078D4" stroke-width="2" stroke-linecap="round" stroke-linejoin="round"/>
  <path d="M4.93 4.93L6.34 6.34" stroke="#0078D4" stroke-width="2" stroke-linecap="round" stroke-linejoin="round"/>
  <path d="M17.66 17.66L19.07 19.07" stroke="#0078D4" stroke-width="2" stroke-linecap="round" stroke-linejoin="round"/>
  <path d="M2 12H4" stroke="#0078D4" stroke-width="2" stroke-linecap="round" stroke-linejoin="round"/>
  <path d="M20 12H22" stroke="#0078D4" stroke-width="2" stroke-linecap="round" stroke-linejoin="round"/>
  <path d="M4.93 19.07L6.34 17.66" stroke="#0078D4" stroke-width="2" stroke-linecap="round" stroke-linejoin="round"/>
  <path d="M17.66 6.34L19.07 4.93" stroke="#0078D4" stroke-width="2" stroke-linecap="round" stroke-linejoin="round"/>
</svg>
