<svg width="600" height="400" viewBox="0 0 600 400" fill="none" xmlns="http://www.w3.org/2000/svg">
  <rect width="600" height="400" fill="#F0F5FF"/>
  <rect x="50" y="50" width="500" height="300" fill="white" stroke="#CCCCCC"/>
  <rect x="75" y="75" width="200" height="25" fill="#0078D4" opacity="0.2"/>
  <rect x="75" y="115" width="450" height="2" fill="#CCCCCC"/>
  <rect x="75" y="130" width="150" height="15" fill="#DDDDDD"/>
  <rect x="75" y="155" width="450" height="15" fill="#EEEEEE"/>
  <rect x="75" y="180" width="450" height="15" fill="#EEEEEE"/>
  <rect x="75" y="205" width="300" height="15" fill="#EEEEEE"/>
  <rect x="75" y="240" width="150" height="15" fill="#DDDDDD"/>
  <rect x="75" y="265" width="450" height="15" fill="#EEEEEE"/>
  <rect x="75" y="290" width="450" height="15" fill="#EEEEEE"/>
  <rect x="75" y="315" width="300" height="15" fill="#EEEEEE"/>
  
  <!-- Highlighted Fields with Azure Accent -->
  <rect x="150" y="155" width="80" height="15" fill="#0078D4" opacity="0.3" stroke="#0078D4"/>
  <rect x="350" y="180" width="120" height="15" fill="#0078D4" opacity="0.3" stroke="#0078D4"/>
  <rect x="230" y="265" width="100" height="15" fill="#0078D4" opacity="0.3" stroke="#0078D4"/>
</svg>
