<svg width="639" height="254" viewBox="0 0 639 254" fill="none" xmlns="http://www.w3.org/2000/svg">
<rect width="639" height="254" rx="20" fill="white"/>
<path d="M200.359 53.24C200.125 55.2667 199.41 57.0587 198.215 58.616C197.042 60.152 195.485 61.3467 193.543 62.2C191.623 63.0533 189.426 63.48 186.951 63.48C184.221 63.48 181.821 62.9573 179.751 61.912C177.703 60.8667 176.103 59.416 174.951 57.56C173.799 55.6827 173.223 53.496 173.223 51C173.223 48.504 173.799 46.328 174.951 44.472C176.103 42.5947 177.703 41.1333 179.751 40.088C181.821 39.0427 184.221 38.52 186.951 38.52C189.426 38.52 191.623 38.9467 193.543 39.8C195.485 40.6533 197.042 41.848 198.215 43.384C199.41 44.92 200.125 46.712 200.359 48.76H194.887C194.674 47.6293 194.215 46.6587 193.511 45.848C192.807 45.016 191.901 44.376 190.791 43.928C189.682 43.48 188.391 43.256 186.919 43.256C185.234 43.256 183.773 43.576 182.535 44.216C181.319 44.8347 180.381 45.7307 179.719 46.904C179.058 48.056 178.727 49.4213 178.727 51C178.727 52.5787 179.058 53.9547 179.719 55.128C180.381 56.28 181.319 57.176 182.535 57.816C183.773 58.4347 185.234 58.744 186.919 58.744C188.391 58.744 189.682 58.5307 190.791 58.104C191.901 57.656 192.807 57.0267 193.511 56.216C194.215 55.384 194.674 54.392 194.887 53.24H200.359ZM203.396 38.36H208.74V63H203.396V38.36ZM215.684 44.312C217.412 44.312 218.884 44.664 220.1 45.368C221.316 46.0507 222.244 47.032 222.884 48.312C223.524 49.592 223.844 51.1173 223.844 52.888V63H218.5V53.688C218.5 52.0453 218.106 50.808 217.316 49.976C216.527 49.1227 215.386 48.696 213.892 48.696C212.847 48.696 211.93 48.9307 211.14 49.4C210.372 49.848 209.775 50.4773 209.348 51.288C208.943 52.0987 208.74 53.0693 208.74 54.2L206.98 53.272C207.215 51.352 207.727 49.7307 208.516 48.408C209.327 47.0853 210.351 46.072 211.588 45.368C212.826 44.664 214.191 44.312 215.684 44.312ZM238.047 63.48C235.786 63.48 233.802 63.0853 232.095 62.296C230.388 61.4853 229.055 60.3653 228.095 58.936C227.135 57.4853 226.655 55.8107 226.655 53.912C226.655 51.992 227.135 50.3173 228.095 48.888C229.055 47.4373 230.388 46.3173 232.095 45.528C233.802 44.7173 235.786 44.312 238.047 44.312C240.308 44.312 242.292 44.7173 243.999 45.528C245.706 46.3173 247.028 47.4373 247.967 48.888C248.927 50.3173 249.407 51.992 249.407 53.912C249.407 55.8107 248.927 57.4853 247.967 58.936C247.028 60.3653 245.706 61.4853 243.999 62.296C242.292 63.0853 240.308 63.48 238.047 63.48ZM238.047 59.416C239.284 59.416 240.34 59.192 241.215 58.744C242.111 58.296 242.794 57.6667 243.263 56.856C243.754 56.024 243.999 55.0427 243.999 53.912C243.999 52.76 243.754 51.7787 243.263 50.968C242.794 50.136 242.111 49.496 241.215 49.048C240.34 48.6 239.284 48.376 238.047 48.376C236.831 48.376 235.775 48.6 234.879 49.048C233.983 49.496 233.29 50.136 232.799 50.968C232.33 51.7787 232.095 52.76 232.095 53.912C232.095 55.0427 232.33 56.024 232.799 56.856C233.29 57.6667 233.983 58.296 234.879 58.744C235.775 59.192 236.831 59.416 238.047 59.416ZM238.047 70.232C237.087 70.232 236.298 69.976 235.679 69.464C235.082 68.9733 234.783 68.312 234.783 67.48C234.783 66.6267 235.082 65.944 235.679 65.432C236.298 64.9413 237.087 64.696 238.047 64.696C239.028 64.696 239.818 64.9413 240.415 65.432C241.012 65.944 241.311 66.6267 241.311 67.48C241.311 68.312 241.012 68.9733 240.415 69.464C239.818 69.976 239.028 70.232 238.047 70.232ZM251.595 44.792H256.939L258.091 51.736V63H252.747V50.936L251.595 44.792ZM265.035 44.312C266.763 44.312 268.235 44.664 269.451 45.368C270.667 46.0507 271.595 47.032 272.235 48.312C272.875 49.592 273.195 51.1173 273.195 52.888V63H267.851V53.688C267.851 52.0453 267.456 50.808 266.667 49.976C265.877 49.1227 264.725 48.696 263.211 48.696C262.187 48.696 261.28 48.9307 260.491 49.4C259.723 49.848 259.125 50.4773 258.699 51.288C258.293 52.0987 258.091 53.0693 258.091 54.2L256.331 53.272C256.544 51.352 257.056 49.7307 257.867 48.408C258.677 47.0853 259.701 46.072 260.939 45.368C262.176 44.664 263.541 44.312 265.035 44.312ZM284.282 44.792H289.626L290.778 51.736V63H285.434V50.936L284.282 44.792ZM297.722 44.312C299.45 44.312 300.922 44.664 302.138 45.368C303.354 46.0507 304.282 47.032 304.922 48.312C305.562 49.592 305.882 51.1173 305.882 52.888V63H300.538V53.688C300.538 52.0453 300.144 50.808 299.354 49.976C298.565 49.1227 297.413 48.696 295.898 48.696C294.874 48.696 293.968 48.9307 293.178 49.4C292.41 49.848 291.813 50.4773 291.386 51.288C290.981 52.0987 290.778 53.0693 290.778 54.2L289.018 53.272C289.232 51.352 289.744 49.7307 290.554 48.408C291.365 47.0853 292.389 46.072 293.626 45.368C294.864 44.664 296.229 44.312 297.722 44.312ZM325.838 58.488V55.32L326.03 54.648V50.68L325.838 50.008V44.792H331.182V58.136C331.182 60.44 330.67 62.3813 329.646 63.96C328.644 65.5387 327.246 66.7333 325.454 67.544C323.662 68.3547 321.582 68.76 319.214 68.76C317.55 68.76 316.014 68.5467 314.606 68.12C313.22 67.6933 311.854 67.0427 310.51 66.168V61.976C311.812 62.9787 313.166 63.6933 314.574 64.12C316.004 64.5467 317.444 64.76 318.894 64.76C321.134 64.76 322.852 64.2373 324.046 63.192C325.241 62.1467 325.838 60.5787 325.838 58.488ZM317.55 61.336C315.865 61.336 314.35 60.984 313.006 60.28C311.684 59.576 310.638 58.584 309.87 57.304C309.102 56.024 308.718 54.5307 308.718 52.824C308.718 51.1173 309.102 49.6347 309.87 48.376C310.638 47.096 311.684 46.104 313.006 45.4C314.35 44.6747 315.865 44.312 317.55 44.312C318.83 44.312 319.993 44.5147 321.038 44.92C322.105 45.304 323.054 45.816 323.886 46.456C324.74 47.096 325.454 47.8 326.03 48.568C326.606 49.3147 327.044 50.072 327.342 50.84C327.662 51.5867 327.822 52.2693 327.822 52.888C327.822 53.6773 327.577 54.5627 327.086 55.544C326.617 56.5253 325.934 57.4533 325.038 58.328C324.142 59.2027 323.065 59.928 321.806 60.504C320.548 61.0587 319.129 61.336 317.55 61.336ZM319.31 57.56C320.697 57.56 321.945 57.1867 323.054 56.44C324.185 55.672 325.177 54.4667 326.03 52.824C325.177 51.16 324.185 49.9547 323.054 49.208C321.924 48.44 320.676 48.056 319.31 48.056C318.222 48.056 317.284 48.2587 316.494 48.664C315.726 49.048 315.129 49.6027 314.702 50.328C314.297 51.032 314.094 51.864 314.094 52.824C314.094 53.7627 314.297 54.5947 314.702 55.32C315.108 56.024 315.705 56.5787 316.494 56.984C317.284 57.368 318.222 57.56 319.31 57.56ZM345.547 63.48C343.286 63.48 341.302 63.0853 339.595 62.296C337.888 61.4853 336.555 60.3653 335.595 58.936C334.635 57.4853 334.155 55.8107 334.155 53.912C334.155 51.992 334.635 50.3173 335.595 48.888C336.555 47.4373 337.888 46.3173 339.595 45.528C341.302 44.7173 343.286 44.312 345.547 44.312C347.808 44.312 349.792 44.7173 351.499 45.528C353.206 46.3173 354.528 47.4373 355.467 48.888C356.427 50.3173 356.907 51.992 356.907 53.912C356.907 55.8107 356.427 57.4853 355.467 58.936C354.528 60.3653 353.206 61.4853 351.499 62.296C349.792 63.0853 347.808 63.48 345.547 63.48ZM345.547 59.416C346.784 59.416 347.84 59.192 348.715 58.744C349.611 58.296 350.294 57.6667 350.763 56.856C351.254 56.024 351.499 55.0427 351.499 53.912C351.499 52.76 351.254 51.7787 350.763 50.968C350.294 50.136 349.611 49.496 348.715 49.048C347.84 48.6 346.784 48.376 345.547 48.376C344.331 48.376 343.275 48.6 342.379 49.048C341.483 49.496 340.79 50.136 340.299 50.968C339.83 51.7787 339.595 52.76 339.595 53.912C339.595 55.0427 339.83 56.024 340.299 56.856C340.79 57.6667 341.483 58.296 342.379 58.744C343.275 59.192 344.331 59.416 345.547 59.416ZM342.731 37.176H348.331L352.907 42.936H348.555L344.331 38.616H346.731L342.539 42.936H338.155L342.731 37.176ZM359.095 44.792H364.439L365.591 51.736V63H360.247V50.936L359.095 44.792ZM372.535 44.312C374.263 44.312 375.735 44.664 376.951 45.368C378.167 46.0507 379.095 47.032 379.735 48.312C380.375 49.592 380.695 51.1173 380.695 52.888V63H375.351V53.688C375.351 52.0453 374.956 50.808 374.167 49.976C373.377 49.1227 372.225 48.696 370.711 48.696C369.687 48.696 368.78 48.9307 367.991 49.4C367.223 49.848 366.625 50.4773 366.199 51.288C365.793 52.0987 365.591 53.0693 365.591 54.2L363.831 53.272C364.044 51.352 364.556 49.7307 365.367 48.408C366.177 47.0853 367.201 46.072 368.439 45.368C369.676 44.664 371.041 44.312 372.535 44.312ZM391.782 44.792H397.126L398.278 51.736V63H392.934V50.936L391.782 44.792ZM405.222 44.312C406.95 44.312 408.422 44.664 409.638 45.368C410.854 46.0507 411.782 47.032 412.422 48.312C413.062 49.592 413.382 51.1173 413.382 52.888V63H408.038V53.688C408.038 52.0453 407.644 50.808 406.854 49.976C406.065 49.1227 404.913 48.696 403.398 48.696C402.374 48.696 401.468 48.9307 400.678 49.4C399.91 49.848 399.313 50.4773 398.886 51.288C398.481 52.0987 398.278 53.0693 398.278 54.2L396.518 53.272C396.732 51.352 397.244 49.7307 398.054 48.408C398.865 47.0853 399.889 46.072 401.126 45.368C402.364 44.664 403.729 44.312 405.222 44.312ZM433.338 58.488V55.32L433.53 54.648V50.68L433.338 50.008V44.792H438.682V58.136C438.682 60.44 438.17 62.3813 437.146 63.96C436.144 65.5387 434.746 66.7333 432.954 67.544C431.162 68.3547 429.082 68.76 426.714 68.76C425.05 68.76 423.514 68.5467 422.106 68.12C420.72 67.6933 419.354 67.0427 418.01 66.168V61.976C419.312 62.9787 420.666 63.6933 422.074 64.12C423.504 64.5467 424.944 64.76 426.394 64.76C428.634 64.76 430.352 64.2373 431.546 63.192C432.741 62.1467 433.338 60.5787 433.338 58.488ZM425.05 61.336C423.365 61.336 421.85 60.984 420.506 60.28C419.184 59.576 418.138 58.584 417.37 57.304C416.602 56.024 416.218 54.5307 416.218 52.824C416.218 51.1173 416.602 49.6347 417.37 48.376C418.138 47.096 419.184 46.104 420.506 45.4C421.85 44.6747 423.365 44.312 425.05 44.312C426.33 44.312 427.493 44.5147 428.538 44.92C429.605 45.304 430.554 45.816 431.386 46.456C432.24 47.096 432.954 47.8 433.53 48.568C434.106 49.3147 434.544 50.072 434.842 50.84C435.162 51.5867 435.322 52.2693 435.322 52.888C435.322 53.6773 435.077 54.5627 434.586 55.544C434.117 56.5253 433.434 57.4533 432.538 58.328C431.642 59.2027 430.565 59.928 429.306 60.504C428.048 61.0587 426.629 61.336 425.05 61.336ZM426.81 57.56C428.197 57.56 429.445 57.1867 430.554 56.44C431.685 55.672 432.677 54.4667 433.53 52.824C432.677 51.16 431.685 49.9547 430.554 49.208C429.424 48.44 428.176 48.056 426.81 48.056C425.722 48.056 424.784 48.2587 423.994 48.664C423.226 49.048 422.629 49.6027 422.202 50.328C421.797 51.032 421.594 51.864 421.594 52.824C421.594 53.7627 421.797 54.5947 422.202 55.32C422.608 56.024 423.205 56.5787 423.994 56.984C424.784 57.368 425.722 57.56 426.81 57.56ZM450.327 63.48C448.642 63.48 447.202 63.1387 446.007 62.456C444.834 61.752 443.927 60.76 443.287 59.48C442.668 58.2 442.359 56.6853 442.359 54.936V44.792H447.703V54.136C447.703 55.7573 448.087 56.9947 448.855 57.848C449.623 58.68 450.711 59.096 452.119 59.096C453.164 59.096 454.05 58.8827 454.775 58.456C455.522 58.008 456.098 57.368 456.503 56.536C456.908 55.704 457.111 54.7333 457.111 53.624L458.839 54.552C458.626 56.4293 458.124 58.04 457.335 59.384C456.546 60.7067 455.543 61.72 454.327 62.424C453.132 63.128 451.799 63.48 450.327 63.48ZM458.231 63L457.111 56.088V44.792H462.455V56.888L463.575 63H458.231ZM467.895 43.672C467.895 44.952 467.362 45.976 466.295 46.744C465.228 47.4907 463.778 47.864 461.943 47.864C461.879 47.864 461.794 47.864 461.687 47.864C461.58 47.864 461.495 47.864 461.431 47.864V44.824C461.474 44.824 461.495 44.824 461.495 44.824C461.495 44.824 461.506 44.824 461.527 44.824C462.188 44.824 462.711 44.664 463.095 44.344C463.479 44.0027 463.671 43.5547 463.671 43C463.671 42.6587 463.596 42.2853 463.447 41.88C463.298 41.4533 463.084 41.048 462.807 40.664H466.935C467.575 41.624 467.895 42.6267 467.895 43.672ZM445.143 42.616C445.25 40.9307 445.666 39.5867 446.391 38.584C447.116 37.5813 448.194 37.08 449.623 37.08C450.178 37.08 450.722 37.176 451.255 37.368C451.788 37.5387 452.29 37.7413 452.759 37.976C453.25 38.1893 453.708 38.392 454.135 38.584C454.562 38.7547 454.956 38.84 455.319 38.84C455.767 38.84 456.14 38.6907 456.439 38.392C456.759 38.0933 456.962 37.6773 457.047 37.144H460.407C460.322 38.7867 459.916 40.12 459.191 41.144C458.466 42.1467 457.388 42.648 455.959 42.648C455.383 42.648 454.828 42.5627 454.295 42.392C453.762 42.2 453.25 41.9973 452.759 41.784C452.29 41.5493 451.842 41.3467 451.415 41.176C451.01 40.984 450.626 40.888 450.263 40.888C449.815 40.888 449.442 41.0373 449.143 41.336C448.844 41.6347 448.642 42.0613 448.535 42.616H445.143Z" fill="#004CDF"/>
<path d="M126.904 95.3828H128.404C128.326 96.1016 128.12 96.7448 127.786 97.3125C127.453 97.8802 126.982 98.3307 126.372 98.6641C125.763 98.9922 125.003 99.1562 124.091 99.1562C123.424 99.1562 122.818 99.0312 122.271 98.7812C121.729 98.5312 121.263 98.1771 120.872 97.7188C120.482 97.2552 120.18 96.7005 119.966 96.0547C119.758 95.4036 119.654 94.6797 119.654 93.8828V92.75C119.654 91.9531 119.758 91.2318 119.966 90.5859C120.18 89.9349 120.484 89.3776 120.88 88.9141C121.281 88.4505 121.763 88.0938 122.326 87.8438C122.888 87.5938 123.521 87.4688 124.224 87.4688C125.083 87.4688 125.81 87.6302 126.404 87.9531C126.997 88.276 127.458 88.724 127.786 89.2969C128.12 89.8646 128.326 90.5234 128.404 91.2734H126.904C126.831 90.7422 126.695 90.2865 126.497 89.9062C126.299 89.5208 126.018 89.224 125.654 89.0156C125.289 88.8073 124.813 88.7031 124.224 88.7031C123.719 88.7031 123.273 88.7995 122.888 88.9922C122.508 89.1849 122.188 89.4583 121.927 89.8125C121.672 90.1667 121.479 90.5911 121.349 91.0859C121.219 91.5807 121.154 92.1302 121.154 92.7344V93.8828C121.154 94.4401 121.211 94.9635 121.326 95.4531C121.445 95.9427 121.625 96.3724 121.865 96.7422C122.104 97.112 122.409 97.4036 122.779 97.6172C123.148 97.8255 123.586 97.9297 124.091 97.9297C124.732 97.9297 125.242 97.8281 125.622 97.625C126.003 97.4219 126.289 97.1302 126.482 96.75C126.68 96.3698 126.82 95.9141 126.904 95.3828ZM131.685 87V99H130.24V87H131.685ZM131.341 94.4531L130.74 94.4297C130.745 93.8516 130.831 93.3177 130.997 92.8281C131.164 92.3333 131.398 91.9036 131.701 91.5391C132.003 91.1745 132.362 90.8932 132.779 90.6953C133.201 90.4922 133.667 90.3906 134.177 90.3906C134.594 90.3906 134.969 90.4479 135.302 90.5625C135.635 90.6719 135.919 90.849 136.154 91.0938C136.393 91.3385 136.576 91.6562 136.701 92.0469C136.826 92.4323 136.888 92.9036 136.888 93.4609V99H135.435V93.4453C135.435 93.0026 135.37 92.6484 135.24 92.3828C135.109 92.112 134.919 91.9167 134.669 91.7969C134.419 91.6719 134.112 91.6094 133.747 91.6094C133.388 91.6094 133.06 91.6849 132.763 91.8359C132.471 91.987 132.219 92.1953 132.005 92.4609C131.797 92.7266 131.633 93.0312 131.513 93.375C131.398 93.7135 131.341 94.0729 131.341 94.4531ZM138.669 94.8672V94.6875C138.669 94.0781 138.758 93.513 138.935 92.9922C139.112 92.4661 139.367 92.0104 139.701 91.625C140.034 91.2344 140.438 90.9323 140.911 90.7188C141.385 90.5 141.917 90.3906 142.505 90.3906C143.099 90.3906 143.633 90.5 144.107 90.7188C144.586 90.9323 144.992 91.2344 145.326 91.625C145.664 92.0104 145.922 92.4661 146.099 92.9922C146.276 93.513 146.365 94.0781 146.365 94.6875V94.8672C146.365 95.4766 146.276 96.0417 146.099 96.5625C145.922 97.0833 145.664 97.5391 145.326 97.9297C144.992 98.3151 144.589 98.6172 144.115 98.8359C143.646 99.0495 143.115 99.1562 142.521 99.1562C141.927 99.1562 141.393 99.0495 140.919 98.8359C140.445 98.6172 140.039 98.3151 139.701 97.9297C139.367 97.5391 139.112 97.0833 138.935 96.5625C138.758 96.0417 138.669 95.4766 138.669 94.8672ZM140.115 94.6875V94.8672C140.115 95.2891 140.164 95.6875 140.263 96.0625C140.362 96.4323 140.51 96.7604 140.708 97.0469C140.911 97.3333 141.164 97.5599 141.466 97.7266C141.768 97.888 142.12 97.9688 142.521 97.9688C142.917 97.9688 143.263 97.888 143.56 97.7266C143.862 97.5599 144.112 97.3333 144.31 97.0469C144.508 96.7604 144.656 96.4323 144.755 96.0625C144.859 95.6875 144.911 95.2891 144.911 94.8672V94.6875C144.911 94.2708 144.859 93.8776 144.755 93.5078C144.656 93.1328 144.505 92.8021 144.302 92.5156C144.104 92.224 143.854 91.9948 143.552 91.8281C143.255 91.6615 142.906 91.5781 142.505 91.5781C142.109 91.5781 141.76 91.6615 141.458 91.8281C141.161 91.9948 140.911 92.224 140.708 92.5156C140.51 92.8021 140.362 93.1328 140.263 93.5078C140.164 93.8776 140.115 94.2708 140.115 94.6875ZM141.615 100.93C141.615 100.695 141.685 100.497 141.826 100.336C141.971 100.174 142.185 100.094 142.466 100.094C142.742 100.094 142.953 100.174 143.099 100.336C143.25 100.497 143.326 100.695 143.326 100.93C143.326 101.154 143.25 101.344 143.099 101.5C142.953 101.661 142.742 101.742 142.466 101.742C142.185 101.742 141.971 101.661 141.826 101.5C141.685 101.344 141.615 101.154 141.615 100.93ZM149.622 92.3516V99H148.177V90.5469H149.544L149.622 92.3516ZM149.279 94.4531L148.677 94.4297C148.682 93.8516 148.768 93.3177 148.935 92.8281C149.102 92.3333 149.336 91.9036 149.638 91.5391C149.94 91.1745 150.299 90.8932 150.716 90.6953C151.138 90.4922 151.604 90.3906 152.115 90.3906C152.531 90.3906 152.906 90.4479 153.24 90.5625C153.573 90.6719 153.857 90.849 154.091 91.0938C154.331 91.3385 154.513 91.6562 154.638 92.0469C154.763 92.4323 154.826 92.9036 154.826 93.4609V99H153.372V93.4453C153.372 93.0026 153.307 92.6484 153.177 92.3828C153.047 92.112 152.857 91.9167 152.607 91.7969C152.357 91.6719 152.049 91.6094 151.685 91.6094C151.326 91.6094 150.997 91.6849 150.701 91.8359C150.409 91.987 150.156 92.1953 149.943 92.4609C149.734 92.7266 149.57 93.0312 149.451 93.375C149.336 93.7135 149.279 94.0729 149.279 94.4531ZM162.435 92.3516V99H160.99V90.5469H162.357L162.435 92.3516ZM162.091 94.4531L161.49 94.4297C161.495 93.8516 161.581 93.3177 161.747 92.8281C161.914 92.3333 162.148 91.9036 162.451 91.5391C162.753 91.1745 163.112 90.8932 163.529 90.6953C163.951 90.4922 164.417 90.3906 164.927 90.3906C165.344 90.3906 165.719 90.4479 166.052 90.5625C166.385 90.6719 166.669 90.849 166.904 91.0938C167.143 91.3385 167.326 91.6562 167.451 92.0469C167.576 92.4323 167.638 92.9036 167.638 93.4609V99H166.185V93.4453C166.185 93.0026 166.12 92.6484 165.99 92.3828C165.859 92.112 165.669 91.9167 165.419 91.7969C165.169 91.6719 164.862 91.6094 164.497 91.6094C164.138 91.6094 163.81 91.6849 163.513 91.8359C163.221 91.987 162.969 92.1953 162.755 92.4609C162.547 92.7266 162.383 93.0312 162.263 93.375C162.148 93.7135 162.091 94.0729 162.091 94.4531ZM175.31 90.5469H176.622V98.8203C176.622 99.5651 176.471 100.201 176.169 100.727C175.867 101.253 175.445 101.651 174.904 101.922C174.367 102.198 173.747 102.336 173.044 102.336C172.753 102.336 172.409 102.289 172.013 102.195C171.622 102.107 171.237 101.953 170.857 101.734C170.482 101.521 170.167 101.232 169.911 100.867L170.669 100.008C171.023 100.435 171.393 100.732 171.779 100.898C172.169 101.065 172.555 101.148 172.935 101.148C173.393 101.148 173.789 101.062 174.122 100.891C174.456 100.719 174.714 100.464 174.896 100.125C175.083 99.7917 175.177 99.3802 175.177 98.8906V92.4062L175.31 90.5469ZM169.49 94.8672V94.7031C169.49 94.0573 169.565 93.4714 169.716 92.9453C169.872 92.4141 170.094 91.9583 170.38 91.5781C170.672 91.1979 171.023 90.9062 171.435 90.7031C171.846 90.4948 172.31 90.3906 172.826 90.3906C173.357 90.3906 173.82 90.4844 174.216 90.6719C174.617 90.8542 174.956 91.1224 175.232 91.4766C175.513 91.8255 175.734 92.2474 175.896 92.7422C176.057 93.237 176.169 93.7969 176.232 94.4219V95.1406C176.174 95.7604 176.063 96.3177 175.896 96.8125C175.734 97.3073 175.513 97.7292 175.232 98.0781C174.956 98.4271 174.617 98.6953 174.216 98.8828C173.815 99.0651 173.346 99.1562 172.81 99.1562C172.305 99.1562 171.846 99.0495 171.435 98.8359C171.029 98.6224 170.68 98.3229 170.388 97.9375C170.096 97.5521 169.872 97.099 169.716 96.5781C169.565 96.0521 169.49 95.4818 169.49 94.8672ZM170.935 94.7031V94.8672C170.935 95.2891 170.977 95.6849 171.06 96.0547C171.148 96.4245 171.281 96.75 171.458 97.0312C171.641 97.3125 171.872 97.5339 172.154 97.6953C172.435 97.8516 172.771 97.9297 173.161 97.9297C173.641 97.9297 174.036 97.8281 174.349 97.625C174.661 97.4219 174.909 97.1536 175.091 96.8203C175.279 96.487 175.424 96.125 175.529 95.7344V93.8516C175.471 93.5651 175.383 93.2891 175.263 93.0234C175.148 92.7526 174.997 92.513 174.81 92.3047C174.628 92.0911 174.401 91.9219 174.13 91.7969C173.859 91.6719 173.542 91.6094 173.177 91.6094C172.781 91.6094 172.44 91.6927 172.154 91.8594C171.872 92.0208 171.641 92.2448 171.458 92.5312C171.281 92.8125 171.148 93.1406 171.06 93.5156C170.977 93.8854 170.935 94.2812 170.935 94.7031ZM178.435 94.8672V94.6875C178.435 94.0781 178.523 93.513 178.701 92.9922C178.878 92.4661 179.133 92.0104 179.466 91.625C179.799 91.2344 180.203 90.9323 180.677 90.7188C181.151 90.5 181.682 90.3906 182.271 90.3906C182.865 90.3906 183.398 90.5 183.872 90.7188C184.352 90.9323 184.758 91.2344 185.091 91.625C185.43 92.0104 185.688 92.4661 185.865 92.9922C186.042 93.513 186.13 94.0781 186.13 94.6875V94.8672C186.13 95.4766 186.042 96.0417 185.865 96.5625C185.688 97.0833 185.43 97.5391 185.091 97.9297C184.758 98.3151 184.354 98.6172 183.88 98.8359C183.411 99.0495 182.88 99.1562 182.286 99.1562C181.693 99.1562 181.159 99.0495 180.685 98.8359C180.211 98.6172 179.805 98.3151 179.466 97.9297C179.133 97.5391 178.878 97.0833 178.701 96.5625C178.523 96.0417 178.435 95.4766 178.435 94.8672ZM179.88 94.6875V94.8672C179.88 95.2891 179.93 95.6875 180.029 96.0625C180.128 96.4323 180.276 96.7604 180.474 97.0469C180.677 97.3333 180.93 97.5599 181.232 97.7266C181.534 97.888 181.885 97.9688 182.286 97.9688C182.682 97.9688 183.029 97.888 183.326 97.7266C183.628 97.5599 183.878 97.3333 184.076 97.0469C184.273 96.7604 184.422 96.4323 184.521 96.0625C184.625 95.6875 184.677 95.2891 184.677 94.8672V94.6875C184.677 94.2708 184.625 93.8776 184.521 93.5078C184.422 93.1328 184.271 92.8021 184.068 92.5156C183.87 92.224 183.62 91.9948 183.318 91.8281C183.021 91.6615 182.672 91.5781 182.271 91.5781C181.875 91.5781 181.526 91.6615 181.224 91.8281C180.927 91.9948 180.677 92.224 180.474 92.5156C180.276 92.8021 180.128 93.1328 180.029 93.5078C179.93 93.8776 179.88 94.2708 179.88 94.6875ZM182.646 87L184.583 89.1328V89.2109H183.38L182.208 87.8906L181.044 89.2109H179.857V89.125L181.771 87H182.646ZM189.388 92.3516V99H187.943V90.5469H189.31L189.388 92.3516ZM189.044 94.4531L188.443 94.4297C188.448 93.8516 188.534 93.3177 188.701 92.8281C188.867 92.3333 189.102 91.9036 189.404 91.5391C189.706 91.1745 190.065 90.8932 190.482 90.6953C190.904 90.4922 191.37 90.3906 191.88 90.3906C192.297 90.3906 192.672 90.4479 193.005 90.5625C193.339 90.6719 193.622 90.849 193.857 91.0938C194.096 91.3385 194.279 91.6562 194.404 92.0469C194.529 92.4323 194.591 92.9036 194.591 93.4609V99H193.138V93.4453C193.138 93.0026 193.073 92.6484 192.943 92.3828C192.813 92.112 192.622 91.9167 192.372 91.7969C192.122 91.6719 191.815 91.6094 191.451 91.6094C191.091 91.6094 190.763 91.6849 190.466 91.8359C190.174 91.987 189.922 92.1953 189.708 92.4609C189.5 92.7266 189.336 93.0312 189.216 93.375C189.102 93.7135 189.044 94.0729 189.044 94.4531ZM202.201 92.3516V99H200.755V90.5469H202.122L202.201 92.3516ZM201.857 94.4531L201.255 94.4297C201.26 93.8516 201.346 93.3177 201.513 92.8281C201.68 92.3333 201.914 91.9036 202.216 91.5391C202.518 91.1745 202.878 90.8932 203.294 90.6953C203.716 90.4922 204.182 90.3906 204.693 90.3906C205.109 90.3906 205.484 90.4479 205.818 90.5625C206.151 90.6719 206.435 90.849 206.669 91.0938C206.909 91.3385 207.091 91.6562 207.216 92.0469C207.341 92.4323 207.404 92.9036 207.404 93.4609V99H205.951V93.4453C205.951 93.0026 205.885 92.6484 205.755 92.3828C205.625 92.112 205.435 91.9167 205.185 91.7969C204.935 91.6719 204.628 91.6094 204.263 91.6094C203.904 91.6094 203.576 91.6849 203.279 91.8359C202.987 91.987 202.734 92.1953 202.521 92.4609C202.313 92.7266 202.148 93.0312 202.029 93.375C201.914 93.7135 201.857 94.0729 201.857 94.4531ZM215.076 90.5469H216.388V98.8203C216.388 99.5651 216.237 100.201 215.935 100.727C215.633 101.253 215.211 101.651 214.669 101.922C214.133 102.198 213.513 102.336 212.81 102.336C212.518 102.336 212.174 102.289 211.779 102.195C211.388 102.107 211.003 101.953 210.622 101.734C210.247 101.521 209.932 101.232 209.677 100.867L210.435 100.008C210.789 100.435 211.159 100.732 211.544 100.898C211.935 101.065 212.32 101.148 212.701 101.148C213.159 101.148 213.555 101.062 213.888 100.891C214.221 100.719 214.479 100.464 214.661 100.125C214.849 99.7917 214.943 99.3802 214.943 98.8906V92.4062L215.076 90.5469ZM209.255 94.8672V94.7031C209.255 94.0573 209.331 93.4714 209.482 92.9453C209.638 92.4141 209.859 91.9583 210.146 91.5781C210.438 91.1979 210.789 90.9062 211.201 90.7031C211.612 90.4948 212.076 90.3906 212.591 90.3906C213.122 90.3906 213.586 90.4844 213.982 90.6719C214.383 90.8542 214.721 91.1224 214.997 91.4766C215.279 91.8255 215.5 92.2474 215.661 92.7422C215.823 93.237 215.935 93.7969 215.997 94.4219V95.1406C215.94 95.7604 215.828 96.3177 215.661 96.8125C215.5 97.3073 215.279 97.7292 214.997 98.0781C214.721 98.4271 214.383 98.6953 213.982 98.8828C213.581 99.0651 213.112 99.1562 212.576 99.1562C212.07 99.1562 211.612 99.0495 211.201 98.8359C210.794 98.6224 210.445 98.3229 210.154 97.9375C209.862 97.5521 209.638 97.099 209.482 96.5781C209.331 96.0521 209.255 95.4818 209.255 94.8672ZM210.701 94.7031V94.8672C210.701 95.2891 210.742 95.6849 210.826 96.0547C210.914 96.4245 211.047 96.75 211.224 97.0312C211.406 97.3125 211.638 97.5339 211.919 97.6953C212.201 97.8516 212.536 97.9297 212.927 97.9297C213.406 97.9297 213.802 97.8281 214.115 97.625C214.427 97.4219 214.674 97.1536 214.857 96.8203C215.044 96.487 215.19 96.125 215.294 95.7344V93.8516C215.237 93.5651 215.148 93.2891 215.029 93.0234C214.914 92.7526 214.763 92.513 214.576 92.3047C214.393 92.0911 214.167 91.9219 213.896 91.7969C213.625 91.6719 213.307 91.6094 212.943 91.6094C212.547 91.6094 212.206 91.6927 211.919 91.8594C211.638 92.0208 211.406 92.2448 211.224 92.5312C211.047 92.8125 210.914 93.1406 210.826 93.5156C210.742 93.8854 210.701 94.2812 210.701 94.7031ZM226.497 89.8672H227.607C227.607 90.4349 227.531 90.9115 227.38 91.2969C227.234 91.6823 226.977 91.9714 226.607 92.1641C226.237 92.3568 225.716 92.4531 225.044 92.4531V91.5625C225.513 91.5625 225.849 91.5052 226.052 91.3906C226.255 91.2708 226.38 91.0859 226.427 90.8359C226.474 90.5859 226.497 90.263 226.497 89.8672ZM223.755 97.0469V90.5469H225.208V99H223.826L223.755 97.0469ZM224.029 95.2656L224.63 95.25C224.63 95.8125 224.57 96.3333 224.451 96.8125C224.336 97.2865 224.148 97.6979 223.888 98.0469C223.628 98.3958 223.286 98.6693 222.865 98.8672C222.443 99.0599 221.93 99.1562 221.326 99.1562C220.914 99.1562 220.536 99.0964 220.193 98.9766C219.854 98.8568 219.563 98.6719 219.318 98.4219C219.073 98.1719 218.883 97.8464 218.747 97.4453C218.617 97.0443 218.552 96.5625 218.552 96V90.5469H219.997V96.0156C219.997 96.3958 220.039 96.7109 220.122 96.9609C220.211 97.2057 220.328 97.401 220.474 97.5469C220.625 97.6875 220.792 97.7865 220.974 97.8438C221.161 97.901 221.354 97.9297 221.552 97.9297C222.167 97.9297 222.654 97.8125 223.013 97.5781C223.372 97.3385 223.63 97.0182 223.786 96.6172C223.948 96.2109 224.029 95.7604 224.029 95.2656ZM223.81 87.3203L224.786 87.4062C224.786 87.7865 224.711 88.1198 224.56 88.4062C224.409 88.6927 224.206 88.9141 223.951 89.0703C223.701 89.2266 223.417 89.3047 223.099 89.3047C222.833 89.3047 222.615 89.2682 222.443 89.1953C222.271 89.1172 222.117 89.0312 221.982 88.9375C221.846 88.8385 221.703 88.7526 221.552 88.6797C221.406 88.6016 221.224 88.5625 221.005 88.5625C220.786 88.5625 220.602 88.6458 220.451 88.8125C220.305 88.9792 220.232 89.1849 220.232 89.4297L219.255 89.3828C219.255 89.0026 219.328 88.6693 219.474 88.3828C219.625 88.0911 219.828 87.8646 220.083 87.7031C220.339 87.5365 220.622 87.4531 220.935 87.4531C221.159 87.4531 221.354 87.4922 221.521 87.5703C221.693 87.6432 221.854 87.7292 222.005 87.8281C222.156 87.9219 222.313 88.0078 222.474 88.0859C222.635 88.1589 222.82 88.1953 223.029 88.1953C223.247 88.1953 223.432 88.112 223.583 87.9453C223.734 87.7734 223.81 87.5651 223.81 87.3203ZM237.786 97.3594V87H239.24V99H237.911L237.786 97.3594ZM232.099 94.8672V94.7031C232.099 94.0573 232.177 93.4714 232.333 92.9453C232.495 92.4141 232.721 91.9583 233.013 91.5781C233.31 91.1979 233.661 90.9062 234.068 90.7031C234.479 90.4948 234.938 90.3906 235.443 90.3906C235.974 90.3906 236.438 90.4844 236.833 90.6719C237.234 90.8542 237.573 91.1224 237.849 91.4766C238.13 91.8255 238.352 92.2474 238.513 92.7422C238.674 93.237 238.786 93.7969 238.849 94.4219V95.1406C238.792 95.7604 238.68 96.3177 238.513 96.8125C238.352 97.3073 238.13 97.7292 237.849 98.0781C237.573 98.4271 237.234 98.6953 236.833 98.8828C236.432 99.0651 235.964 99.1562 235.427 99.1562C234.932 99.1562 234.479 99.0495 234.068 98.8359C233.661 98.6224 233.31 98.3229 233.013 97.9375C232.721 97.5521 232.495 97.099 232.333 96.5781C232.177 96.0521 232.099 95.4818 232.099 94.8672ZM233.552 94.7031V94.8672C233.552 95.2891 233.594 95.6849 233.677 96.0547C233.766 96.4245 233.901 96.75 234.083 97.0312C234.266 97.3125 234.497 97.5339 234.779 97.6953C235.06 97.8516 235.396 97.9297 235.786 97.9297C236.266 97.9297 236.659 97.8281 236.966 97.625C237.279 97.4219 237.529 97.1536 237.716 96.8203C237.904 96.487 238.049 96.125 238.154 95.7344V93.8516C238.091 93.5651 238 93.2891 237.88 93.0234C237.766 92.7526 237.615 92.513 237.427 92.3047C237.245 92.0911 237.018 91.9219 236.747 91.7969C236.482 91.6719 236.167 91.6094 235.802 91.6094C235.406 91.6094 235.065 91.6927 234.779 91.8594C234.497 92.0208 234.266 92.2448 234.083 92.5312C233.901 92.8125 233.766 93.1406 233.677 93.5156C233.594 93.8854 233.552 94.2812 233.552 94.7031ZM243.06 90.5469V99H241.607V90.5469H243.06ZM241.497 88.3047C241.497 88.0703 241.568 87.8724 241.708 87.7109C241.854 87.5495 242.068 87.4688 242.349 87.4688C242.625 87.4688 242.836 87.5495 242.982 87.7109C243.133 87.8724 243.208 88.0703 243.208 88.3047C243.208 88.5286 243.133 88.7214 242.982 88.8828C242.836 89.0391 242.625 89.1172 242.349 89.1172C242.068 89.1172 241.854 89.0391 241.708 88.8828C241.568 88.7214 241.497 88.5286 241.497 88.3047ZM241.435 100.844C241.435 100.609 241.505 100.411 241.646 100.25C241.792 100.089 242.005 100.008 242.286 100.008C242.563 100.008 242.773 100.089 242.919 100.25C243.07 100.411 243.146 100.609 243.146 100.844C243.146 101.068 243.07 101.258 242.919 101.414C242.773 101.576 242.563 101.656 242.286 101.656C242.005 101.656 241.792 101.576 241.646 101.414C241.505 101.258 241.435 101.068 241.435 100.844ZM248.763 97.9688C249.107 97.9688 249.424 97.8984 249.716 97.7578C250.008 97.6172 250.247 97.4245 250.435 97.1797C250.622 96.9297 250.729 96.6458 250.755 96.3281H252.13C252.104 96.8281 251.935 97.2943 251.622 97.7266C251.315 98.1536 250.911 98.5 250.411 98.7656C249.911 99.026 249.362 99.1562 248.763 99.1562C248.128 99.1562 247.573 99.0443 247.099 98.8203C246.63 98.5964 246.24 98.2891 245.927 97.8984C245.62 97.5078 245.388 97.0599 245.232 96.5547C245.081 96.0443 245.005 95.5052 245.005 94.9375V94.6094C245.005 94.0417 245.081 93.5052 245.232 93C245.388 92.4896 245.62 92.0391 245.927 91.6484C246.24 91.2578 246.63 90.9505 247.099 90.7266C247.573 90.5026 248.128 90.3906 248.763 90.3906C249.424 90.3906 250.003 90.526 250.497 90.7969C250.992 91.0625 251.38 91.4271 251.661 91.8906C251.948 92.349 252.104 92.8698 252.13 93.4531H250.755C250.729 93.1042 250.63 92.7891 250.458 92.5078C250.292 92.2266 250.063 92.0026 249.771 91.8359C249.484 91.6641 249.148 91.5781 248.763 91.5781C248.32 91.5781 247.948 91.6667 247.646 91.8438C247.349 92.0156 247.112 92.25 246.935 92.5469C246.763 92.8385 246.638 93.1641 246.56 93.5234C246.487 93.8776 246.451 94.2396 246.451 94.6094V94.9375C246.451 95.3073 246.487 95.6719 246.56 96.0312C246.633 96.3906 246.755 96.7161 246.927 97.0078C247.104 97.2995 247.341 97.5339 247.638 97.7109C247.94 97.8828 248.315 97.9688 248.763 97.9688ZM255.201 87V99H253.755V87H255.201ZM254.857 94.4531L254.255 94.4297C254.26 93.8516 254.346 93.3177 254.513 92.8281C254.68 92.3333 254.914 91.9036 255.216 91.5391C255.518 91.1745 255.878 90.8932 256.294 90.6953C256.716 90.4922 257.182 90.3906 257.693 90.3906C258.109 90.3906 258.484 90.4479 258.818 90.5625C259.151 90.6719 259.435 90.849 259.669 91.0938C259.909 91.3385 260.091 91.6562 260.216 92.0469C260.341 92.4323 260.404 92.9036 260.404 93.4609V99H258.951V93.4453C258.951 93.0026 258.885 92.6484 258.755 92.3828C258.625 92.112 258.435 91.9167 258.185 91.7969C257.935 91.6719 257.628 91.6094 257.263 91.6094C256.904 91.6094 256.576 91.6849 256.279 91.8359C255.987 91.987 255.734 92.1953 255.521 92.4609C255.313 92.7266 255.148 93.0312 255.029 93.375C254.914 93.7135 254.857 94.0729 254.857 94.4531ZM267.974 92.2266V99H266.521V90.5469H267.896L267.974 92.2266ZM267.677 94.4531L267.005 94.4297C267.01 93.8516 267.086 93.3177 267.232 92.8281C267.378 92.3333 267.594 91.9036 267.88 91.5391C268.167 91.1745 268.523 90.8932 268.951 90.6953C269.378 90.4922 269.872 90.3906 270.435 90.3906C270.831 90.3906 271.195 90.4479 271.529 90.5625C271.862 90.6719 272.151 90.8464 272.396 91.0859C272.641 91.3255 272.831 91.6328 272.966 92.0078C273.102 92.3828 273.169 92.8359 273.169 93.3672V99H271.724V93.4375C271.724 92.9948 271.648 92.6406 271.497 92.375C271.352 92.1094 271.143 91.9167 270.872 91.7969C270.602 91.6719 270.284 91.6094 269.919 91.6094C269.492 91.6094 269.135 91.6849 268.849 91.8359C268.563 91.987 268.333 92.1953 268.161 92.4609C267.99 92.7266 267.865 93.0312 267.786 93.375C267.714 93.7135 267.677 94.0729 267.677 94.4531ZM273.154 93.6562L272.185 93.9531C272.19 93.4896 272.266 93.0443 272.411 92.6172C272.563 92.1901 272.779 91.8099 273.06 91.4766C273.346 91.1432 273.698 90.8802 274.115 90.6875C274.531 90.4896 275.008 90.3906 275.544 90.3906C275.997 90.3906 276.398 90.4505 276.747 90.5703C277.102 90.6901 277.398 90.875 277.638 91.125C277.883 91.3698 278.068 91.6849 278.193 92.0703C278.318 92.4557 278.38 92.9141 278.38 93.4453V99H276.927V93.4297C276.927 92.9557 276.852 92.5885 276.701 92.3281C276.555 92.0625 276.346 91.8776 276.076 91.7734C275.81 91.6641 275.492 91.6094 275.122 91.6094C274.805 91.6094 274.523 91.6641 274.279 91.7734C274.034 91.8828 273.828 92.0339 273.661 92.2266C273.495 92.4141 273.367 92.6302 273.279 92.875C273.195 93.1198 273.154 93.3802 273.154 93.6562ZM280.185 94.8672V94.6875C280.185 94.0781 280.273 93.513 280.451 92.9922C280.628 92.4661 280.883 92.0104 281.216 91.625C281.549 91.2344 281.953 90.9323 282.427 90.7188C282.901 90.5 283.432 90.3906 284.021 90.3906C284.615 90.3906 285.148 90.5 285.622 90.7188C286.102 90.9323 286.508 91.2344 286.841 91.625C287.18 92.0104 287.438 92.4661 287.615 92.9922C287.792 93.513 287.88 94.0781 287.88 94.6875V94.8672C287.88 95.4766 287.792 96.0417 287.615 96.5625C287.438 97.0833 287.18 97.5391 286.841 97.9297C286.508 98.3151 286.104 98.6172 285.63 98.8359C285.161 99.0495 284.63 99.1562 284.036 99.1562C283.443 99.1562 282.909 99.0495 282.435 98.8359C281.961 98.6172 281.555 98.3151 281.216 97.9297C280.883 97.5391 280.628 97.0833 280.451 96.5625C280.273 96.0417 280.185 95.4766 280.185 94.8672ZM281.63 94.6875V94.8672C281.63 95.2891 281.68 95.6875 281.779 96.0625C281.878 96.4323 282.026 96.7604 282.224 97.0469C282.427 97.3333 282.68 97.5599 282.982 97.7266C283.284 97.888 283.635 97.9688 284.036 97.9688C284.432 97.9688 284.779 97.888 285.076 97.7266C285.378 97.5599 285.628 97.3333 285.826 97.0469C286.023 96.7604 286.172 96.4323 286.271 96.0625C286.375 95.6875 286.427 95.2891 286.427 94.8672V94.6875C286.427 94.2708 286.375 93.8776 286.271 93.5078C286.172 93.1328 286.021 92.8021 285.818 92.5156C285.62 92.224 285.37 91.9948 285.068 91.8281C284.771 91.6615 284.422 91.5781 284.021 91.5781C283.625 91.5781 283.276 91.6615 282.974 91.8281C282.677 91.9948 282.427 92.224 282.224 92.5156C282.026 92.8021 281.878 93.1328 281.779 93.5078C281.68 93.8776 281.63 94.2708 281.63 94.6875ZM291.138 92.3516V99H289.693V90.5469H291.06L291.138 92.3516ZM290.794 94.4531L290.193 94.4297C290.198 93.8516 290.284 93.3177 290.451 92.8281C290.617 92.3333 290.852 91.9036 291.154 91.5391C291.456 91.1745 291.815 90.8932 292.232 90.6953C292.654 90.4922 293.12 90.3906 293.63 90.3906C294.047 90.3906 294.422 90.4479 294.755 90.5625C295.089 90.6719 295.372 90.849 295.607 91.0938C295.846 91.3385 296.029 91.6562 296.154 92.0469C296.279 92.4323 296.341 92.9036 296.341 93.4609V99H294.888V93.4453C294.888 93.0026 294.823 92.6484 294.693 92.3828C294.563 92.112 294.372 91.9167 294.122 91.7969C293.872 91.6719 293.565 91.6094 293.201 91.6094C292.841 91.6094 292.513 91.6849 292.216 91.8359C291.924 91.987 291.672 92.1953 291.458 92.4609C291.25 92.7266 291.086 93.0312 290.966 93.375C290.852 93.7135 290.794 94.0729 290.794 94.4531ZM304.013 90.5469H305.326V98.8203C305.326 99.5651 305.174 100.201 304.872 100.727C304.57 101.253 304.148 101.651 303.607 101.922C303.07 102.198 302.451 102.336 301.747 102.336C301.456 102.336 301.112 102.289 300.716 102.195C300.326 102.107 299.94 101.953 299.56 101.734C299.185 101.521 298.87 101.232 298.615 100.867L299.372 100.008C299.727 100.435 300.096 100.732 300.482 100.898C300.872 101.065 301.258 101.148 301.638 101.148C302.096 101.148 302.492 101.062 302.826 100.891C303.159 100.719 303.417 100.464 303.599 100.125C303.786 99.7917 303.88 99.3802 303.88 98.8906V92.4062L304.013 90.5469ZM298.193 94.8672V94.7031C298.193 94.0573 298.268 93.4714 298.419 92.9453C298.576 92.4141 298.797 91.9583 299.083 91.5781C299.375 91.1979 299.727 90.9062 300.138 90.7031C300.549 90.4948 301.013 90.3906 301.529 90.3906C302.06 90.3906 302.523 90.4844 302.919 90.6719C303.32 90.8542 303.659 91.1224 303.935 91.4766C304.216 91.8255 304.438 92.2474 304.599 92.7422C304.76 93.237 304.872 93.7969 304.935 94.4219V95.1406C304.878 95.7604 304.766 96.3177 304.599 96.8125C304.438 97.3073 304.216 97.7292 303.935 98.0781C303.659 98.4271 303.32 98.6953 302.919 98.8828C302.518 99.0651 302.049 99.1562 301.513 99.1562C301.008 99.1562 300.549 99.0495 300.138 98.8359C299.732 98.6224 299.383 98.3229 299.091 97.9375C298.799 97.5521 298.576 97.099 298.419 96.5781C298.268 96.0521 298.193 95.4818 298.193 94.8672ZM299.638 94.7031V94.8672C299.638 95.2891 299.68 95.6849 299.763 96.0547C299.852 96.4245 299.984 96.75 300.161 97.0312C300.344 97.3125 300.576 97.5339 300.857 97.6953C301.138 97.8516 301.474 97.9297 301.865 97.9297C302.344 97.9297 302.74 97.8281 303.052 97.625C303.365 97.4219 303.612 97.1536 303.794 96.8203C303.982 96.487 304.128 96.125 304.232 95.7344V93.8516C304.174 93.5651 304.086 93.2891 303.966 93.0234C303.852 92.7526 303.701 92.513 303.513 92.3047C303.331 92.0911 303.104 91.9219 302.833 91.7969C302.563 91.6719 302.245 91.6094 301.88 91.6094C301.484 91.6094 301.143 91.6927 300.857 91.8594C300.576 92.0208 300.344 92.2448 300.161 92.5312C299.984 92.8125 299.852 93.1406 299.763 93.5156C299.68 93.8854 299.638 94.2812 299.638 94.7031ZM312.927 92.2266V99H311.474V90.5469H312.849L312.927 92.2266ZM312.63 94.4531L311.958 94.4297C311.964 93.8516 312.039 93.3177 312.185 92.8281C312.331 92.3333 312.547 91.9036 312.833 91.5391C313.12 91.1745 313.477 90.8932 313.904 90.6953C314.331 90.4922 314.826 90.3906 315.388 90.3906C315.784 90.3906 316.148 90.4479 316.482 90.5625C316.815 90.6719 317.104 90.8464 317.349 91.0859C317.594 91.3255 317.784 91.6328 317.919 92.0078C318.055 92.3828 318.122 92.8359 318.122 93.3672V99H316.677V93.4375C316.677 92.9948 316.602 92.6406 316.451 92.375C316.305 92.1094 316.096 91.9167 315.826 91.7969C315.555 91.6719 315.237 91.6094 314.872 91.6094C314.445 91.6094 314.089 91.6849 313.802 91.8359C313.516 91.987 313.286 92.1953 313.115 92.4609C312.943 92.7266 312.818 93.0312 312.74 93.375C312.667 93.7135 312.63 94.0729 312.63 94.4531ZM318.107 93.6562L317.138 93.9531C317.143 93.4896 317.219 93.0443 317.365 92.6172C317.516 92.1901 317.732 91.8099 318.013 91.4766C318.299 91.1432 318.651 90.8802 319.068 90.6875C319.484 90.4896 319.961 90.3906 320.497 90.3906C320.951 90.3906 321.352 90.4505 321.701 90.5703C322.055 90.6901 322.352 90.875 322.591 91.125C322.836 91.3698 323.021 91.6849 323.146 92.0703C323.271 92.4557 323.333 92.9141 323.333 93.4453V99H321.88V93.4297C321.88 92.9557 321.805 92.5885 321.654 92.3281C321.508 92.0625 321.299 91.8776 321.029 91.7734C320.763 91.6641 320.445 91.6094 320.076 91.6094C319.758 91.6094 319.477 91.6641 319.232 91.7734C318.987 91.8828 318.781 92.0339 318.615 92.2266C318.448 92.4141 318.32 92.6302 318.232 92.875C318.148 93.1198 318.107 93.3802 318.107 93.6562ZM330.693 97.0469V90.5469H332.146V99H330.763L330.693 97.0469ZM330.966 95.2656L331.568 95.25C331.568 95.8125 331.508 96.3333 331.388 96.8125C331.273 97.2865 331.086 97.6979 330.826 98.0469C330.565 98.3958 330.224 98.6693 329.802 98.8672C329.38 99.0599 328.867 99.1562 328.263 99.1562C327.852 99.1562 327.474 99.0964 327.13 98.9766C326.792 98.8568 326.5 98.6719 326.255 98.4219C326.01 98.1719 325.82 97.8464 325.685 97.4453C325.555 97.0443 325.49 96.5625 325.49 96V90.5469H326.935V96.0156C326.935 96.3958 326.977 96.7109 327.06 96.9609C327.148 97.2057 327.266 97.401 327.411 97.5469C327.563 97.6875 327.729 97.7865 327.911 97.8438C328.099 97.901 328.292 97.9297 328.49 97.9297C329.104 97.9297 329.591 97.8125 329.951 97.5781C330.31 97.3385 330.568 97.0182 330.724 96.6172C330.885 96.2109 330.966 95.7604 330.966 95.2656ZM333.966 94.8672V94.6875C333.966 94.0781 334.055 93.513 334.232 92.9922C334.409 92.4661 334.664 92.0104 334.997 91.625C335.331 91.2344 335.734 90.9323 336.208 90.7188C336.682 90.5 337.214 90.3906 337.802 90.3906C338.396 90.3906 338.93 90.5 339.404 90.7188C339.883 90.9323 340.289 91.2344 340.622 91.625C340.961 92.0104 341.219 92.4661 341.396 92.9922C341.573 93.513 341.661 94.0781 341.661 94.6875V94.8672C341.661 95.4766 341.573 96.0417 341.396 96.5625C341.219 97.0833 340.961 97.5391 340.622 97.9297C340.289 98.3151 339.885 98.6172 339.411 98.8359C338.943 99.0495 338.411 99.1562 337.818 99.1562C337.224 99.1562 336.69 99.0495 336.216 98.8359C335.742 98.6172 335.336 98.3151 334.997 97.9297C334.664 97.5391 334.409 97.0833 334.232 96.5625C334.055 96.0417 333.966 95.4766 333.966 94.8672ZM335.411 94.6875V94.8672C335.411 95.2891 335.461 95.6875 335.56 96.0625C335.659 96.4323 335.807 96.7604 336.005 97.0469C336.208 97.3333 336.461 97.5599 336.763 97.7266C337.065 97.888 337.417 97.9688 337.818 97.9688C338.214 97.9688 338.56 97.888 338.857 97.7266C339.159 97.5599 339.409 97.3333 339.607 97.0469C339.805 96.7604 339.953 96.4323 340.052 96.0625C340.156 95.6875 340.208 95.2891 340.208 94.8672V94.6875C340.208 94.2708 340.156 93.8776 340.052 93.5078C339.953 93.1328 339.802 92.8021 339.599 92.5156C339.401 92.224 339.151 91.9948 338.849 91.8281C338.552 91.6615 338.203 91.5781 337.802 91.5781C337.406 91.5781 337.057 91.6615 336.755 91.8281C336.458 91.9948 336.208 92.224 336.005 92.5156C335.807 92.8021 335.659 93.1328 335.56 93.5078C335.461 93.8776 335.411 94.2708 335.411 94.6875ZM334.872 89.2969L337.146 87.25H338.333L340.607 89.2969H339.068L337.74 88.0625L336.411 89.2969H334.872ZM340.029 87.9141L341.13 85.8984H342.693L341.122 87.9141H340.029ZM344.919 92.3516V99H343.474V90.5469H344.841L344.919 92.3516ZM344.576 94.4531L343.974 94.4297C343.979 93.8516 344.065 93.3177 344.232 92.8281C344.398 92.3333 344.633 91.9036 344.935 91.5391C345.237 91.1745 345.596 90.8932 346.013 90.6953C346.435 90.4922 346.901 90.3906 347.411 90.3906C347.828 90.3906 348.203 90.4479 348.536 90.5625C348.87 90.6719 349.154 90.849 349.388 91.0938C349.628 91.3385 349.81 91.6562 349.935 92.0469C350.06 92.4323 350.122 92.9036 350.122 93.4609V99H348.669V93.4453C348.669 93.0026 348.604 92.6484 348.474 92.3828C348.344 92.112 348.154 91.9167 347.904 91.7969C347.654 91.6719 347.346 91.6094 346.982 91.6094C346.622 91.6094 346.294 91.6849 345.997 91.8359C345.706 91.987 345.453 92.1953 345.24 92.4609C345.031 92.7266 344.867 93.0312 344.747 93.375C344.633 93.7135 344.576 94.0729 344.576 94.4531ZM359.826 90.5469V91.6562H355.255V90.5469H359.826ZM356.802 88.4922H358.247V96.9062C358.247 97.1927 358.292 97.4089 358.38 97.5547C358.469 97.7005 358.583 97.7969 358.724 97.8438C358.865 97.8906 359.016 97.9141 359.177 97.9141C359.297 97.9141 359.422 97.9036 359.552 97.8828C359.688 97.8568 359.789 97.8359 359.857 97.8203L359.865 99C359.75 99.0365 359.599 99.0703 359.411 99.1016C359.229 99.138 359.008 99.1562 358.747 99.1562C358.393 99.1562 358.068 99.0859 357.771 98.9453C357.474 98.8047 357.237 98.5703 357.06 98.2422C356.888 97.9089 356.802 97.4609 356.802 96.8984V88.4922ZM369.435 89.8672H370.544C370.544 90.4349 370.469 90.9115 370.318 91.2969C370.172 91.6823 369.914 91.9714 369.544 92.1641C369.174 92.3568 368.654 92.4531 367.982 92.4531V91.5625C368.451 91.5625 368.786 91.5052 368.99 91.3906C369.193 91.2708 369.318 91.0859 369.365 90.8359C369.411 90.5859 369.435 90.263 369.435 89.8672ZM366.693 97.0469V90.5469H368.146V99H366.763L366.693 97.0469ZM366.966 95.2656L367.568 95.25C367.568 95.8125 367.508 96.3333 367.388 96.8125C367.273 97.2865 367.086 97.6979 366.826 98.0469C366.565 98.3958 366.224 98.6693 365.802 98.8672C365.38 99.0599 364.867 99.1562 364.263 99.1562C363.852 99.1562 363.474 99.0964 363.13 98.9766C362.792 98.8568 362.5 98.6719 362.255 98.4219C362.01 98.1719 361.82 97.8464 361.685 97.4453C361.555 97.0443 361.49 96.5625 361.49 96V90.5469H362.935V96.0156C362.935 96.3958 362.977 96.7109 363.06 96.9609C363.148 97.2057 363.266 97.401 363.411 97.5469C363.563 97.6875 363.729 97.7865 363.911 97.8438C364.099 97.901 364.292 97.9297 364.49 97.9297C365.104 97.9297 365.591 97.8125 365.951 97.5781C366.31 97.3385 366.568 97.0182 366.724 96.6172C366.885 96.2109 366.966 95.7604 366.966 95.2656ZM364.263 87.1641L365.771 89.4609H364.529L362.513 87.1641H364.263ZM378.779 97.9688C379.122 97.9688 379.44 97.8984 379.732 97.7578C380.023 97.6172 380.263 97.4245 380.451 97.1797C380.638 96.9297 380.745 96.6458 380.771 96.3281H382.146C382.12 96.8281 381.951 97.2943 381.638 97.7266C381.331 98.1536 380.927 98.5 380.427 98.7656C379.927 99.026 379.378 99.1562 378.779 99.1562C378.143 99.1562 377.589 99.0443 377.115 98.8203C376.646 98.5964 376.255 98.2891 375.943 97.8984C375.635 97.5078 375.404 97.0599 375.247 96.5547C375.096 96.0443 375.021 95.5052 375.021 94.9375V94.6094C375.021 94.0417 375.096 93.5052 375.247 93C375.404 92.4896 375.635 92.0391 375.943 91.6484C376.255 91.2578 376.646 90.9505 377.115 90.7266C377.589 90.5026 378.143 90.3906 378.779 90.3906C379.44 90.3906 380.018 90.526 380.513 90.7969C381.008 91.0625 381.396 91.4271 381.677 91.8906C381.964 92.349 382.12 92.8698 382.146 93.4531H380.771C380.745 93.1042 380.646 92.7891 380.474 92.5078C380.307 92.2266 380.078 92.0026 379.786 91.8359C379.5 91.6641 379.164 91.5781 378.779 91.5781C378.336 91.5781 377.964 91.6667 377.661 91.8438C377.365 92.0156 377.128 92.25 376.951 92.5469C376.779 92.8385 376.654 93.1641 376.576 93.5234C376.503 93.8776 376.466 94.2396 376.466 94.6094V94.9375C376.466 95.3073 376.503 95.6719 376.576 96.0312C376.648 96.3906 376.771 96.7161 376.943 97.0078C377.12 97.2995 377.357 97.5339 377.654 97.7109C377.956 97.8828 378.331 97.9688 378.779 97.9688ZM388.755 97.5547V93.2031C388.755 92.8698 388.688 92.5807 388.552 92.3359C388.422 92.0859 388.224 91.8932 387.958 91.7578C387.693 91.6224 387.365 91.5547 386.974 91.5547C386.609 91.5547 386.289 91.6172 386.013 91.7422C385.742 91.8672 385.529 92.0312 385.372 92.2344C385.221 92.4375 385.146 92.6562 385.146 92.8906H383.701C383.701 92.5885 383.779 92.2891 383.935 91.9922C384.091 91.6953 384.315 91.4271 384.607 91.1875C384.904 90.9427 385.258 90.75 385.669 90.6094C386.086 90.4635 386.549 90.3906 387.06 90.3906C387.674 90.3906 388.216 90.4948 388.685 90.7031C389.159 90.9115 389.529 91.2266 389.794 91.6484C390.065 92.0651 390.201 92.5885 390.201 93.2188V97.1562C390.201 97.4375 390.224 97.737 390.271 98.0547C390.323 98.3724 390.398 98.6458 390.497 98.875V99H388.99C388.917 98.8333 388.859 98.612 388.818 98.3359C388.776 98.0547 388.755 97.7943 388.755 97.5547ZM389.005 93.875L389.021 94.8906H387.56C387.148 94.8906 386.781 94.9245 386.458 94.9922C386.135 95.0547 385.865 95.151 385.646 95.2812C385.427 95.4115 385.26 95.5755 385.146 95.7734C385.031 95.9661 384.974 96.1927 384.974 96.4531C384.974 96.7188 385.034 96.9609 385.154 97.1797C385.273 97.3984 385.453 97.5729 385.693 97.7031C385.938 97.8281 386.237 97.8906 386.591 97.8906C387.034 97.8906 387.424 97.7969 387.763 97.6094C388.102 97.4219 388.37 97.1927 388.568 96.9219C388.771 96.651 388.88 96.388 388.896 96.1328L389.513 96.8281C389.477 97.0469 389.378 97.2891 389.216 97.5547C389.055 97.8203 388.839 98.0755 388.568 98.3203C388.302 98.5599 387.984 98.7604 387.615 98.9219C387.25 99.0781 386.839 99.1562 386.38 99.1562C385.807 99.1562 385.305 99.0443 384.872 98.8203C384.445 98.5964 384.112 98.2969 383.872 97.9219C383.638 97.5417 383.521 97.1172 383.521 96.6484C383.521 96.1953 383.609 95.7969 383.786 95.4531C383.964 95.1042 384.219 94.8151 384.552 94.5859C384.885 94.3516 385.286 94.1745 385.755 94.0547C386.224 93.9349 386.747 93.875 387.326 93.875H389.005ZM386.419 89.2969L387.935 87H389.677L387.583 89.2969H386.419ZM395.857 97.9688C396.201 97.9688 396.518 97.8984 396.81 97.7578C397.102 97.6172 397.341 97.4245 397.529 97.1797C397.716 96.9297 397.823 96.6458 397.849 96.3281H399.224C399.198 96.8281 399.029 97.2943 398.716 97.7266C398.409 98.1536 398.005 98.5 397.505 98.7656C397.005 99.026 396.456 99.1562 395.857 99.1562C395.221 99.1562 394.667 99.0443 394.193 98.8203C393.724 98.5964 393.333 98.2891 393.021 97.8984C392.714 97.5078 392.482 97.0599 392.326 96.5547C392.174 96.0443 392.099 95.5052 392.099 94.9375V94.6094C392.099 94.0417 392.174 93.5052 392.326 93C392.482 92.4896 392.714 92.0391 393.021 91.6484C393.333 91.2578 393.724 90.9505 394.193 90.7266C394.667 90.5026 395.221 90.3906 395.857 90.3906C396.518 90.3906 397.096 90.526 397.591 90.7969C398.086 91.0625 398.474 91.4271 398.755 91.8906C399.042 92.349 399.198 92.8698 399.224 93.4531H397.849C397.823 93.1042 397.724 92.7891 397.552 92.5078C397.385 92.2266 397.156 92.0026 396.865 91.8359C396.578 91.6641 396.242 91.5781 395.857 91.5781C395.414 91.5781 395.042 91.6667 394.74 91.8438C394.443 92.0156 394.206 92.25 394.029 92.5469C393.857 92.8385 393.732 93.1641 393.654 93.5234C393.581 93.8776 393.544 94.2396 393.544 94.6094V94.9375C393.544 95.3073 393.581 95.6719 393.654 96.0312C393.727 96.3906 393.849 96.7161 394.021 97.0078C394.198 97.2995 394.435 97.5339 394.732 97.7109C395.034 97.8828 395.409 97.9688 395.857 97.9688ZM408.357 90.5469V91.6562H403.786V90.5469H408.357ZM405.333 88.4922H406.779V96.9062C406.779 97.1927 406.823 97.4089 406.911 97.5547C407 97.7005 407.115 97.7969 407.255 97.8438C407.396 97.8906 407.547 97.9141 407.708 97.9141C407.828 97.9141 407.953 97.9036 408.083 97.8828C408.219 97.8568 408.32 97.8359 408.388 97.8203L408.396 99C408.281 99.0365 408.13 99.0703 407.943 99.1016C407.76 99.138 407.539 99.1562 407.279 99.1562C406.924 99.1562 406.599 99.0859 406.302 98.9453C406.005 98.8047 405.768 98.5703 405.591 98.2422C405.419 97.9089 405.333 97.4609 405.333 96.8984V88.4922ZM415.224 97.0469V90.5469H416.677V99H415.294L415.224 97.0469ZM415.497 95.2656L416.099 95.25C416.099 95.8125 416.039 96.3333 415.919 96.8125C415.805 97.2865 415.617 97.6979 415.357 98.0469C415.096 98.3958 414.755 98.6693 414.333 98.8672C413.911 99.0599 413.398 99.1562 412.794 99.1562C412.383 99.1562 412.005 99.0964 411.661 98.9766C411.323 98.8568 411.031 98.6719 410.786 98.4219C410.542 98.1719 410.352 97.8464 410.216 97.4453C410.086 97.0443 410.021 96.5625 410.021 96V90.5469H411.466V96.0156C411.466 96.3958 411.508 96.7109 411.591 96.9609C411.68 97.2057 411.797 97.401 411.943 97.5469C412.094 97.6875 412.26 97.7865 412.443 97.8438C412.63 97.901 412.823 97.9297 413.021 97.9297C413.635 97.9297 414.122 97.8125 414.482 97.5781C414.841 97.3385 415.099 97.0182 415.255 96.6172C415.417 96.2109 415.497 95.7604 415.497 95.2656ZM412.693 87L414.201 89.2969H412.958L410.943 87H412.693ZM421.255 98.125L423.607 90.5469H425.154L421.763 100.305C421.685 100.513 421.581 100.737 421.451 100.977C421.326 101.221 421.164 101.453 420.966 101.672C420.768 101.891 420.529 102.068 420.247 102.203C419.971 102.344 419.641 102.414 419.255 102.414C419.141 102.414 418.995 102.398 418.818 102.367C418.641 102.336 418.516 102.31 418.443 102.289L418.435 101.117C418.477 101.122 418.542 101.128 418.63 101.133C418.724 101.143 418.789 101.148 418.826 101.148C419.154 101.148 419.432 101.104 419.661 101.016C419.891 100.932 420.083 100.789 420.24 100.586C420.401 100.388 420.539 100.115 420.654 99.7656L421.255 98.125ZM419.529 90.5469L421.724 97.1094L422.099 98.6328L421.06 99.1641L417.951 90.5469H419.529ZM433.81 97.9688C434.154 97.9688 434.471 97.8984 434.763 97.7578C435.055 97.6172 435.294 97.4245 435.482 97.1797C435.669 96.9297 435.776 96.6458 435.802 96.3281H437.177C437.151 96.8281 436.982 97.2943 436.669 97.7266C436.362 98.1536 435.958 98.5 435.458 98.7656C434.958 99.026 434.409 99.1562 433.81 99.1562C433.174 99.1562 432.62 99.0443 432.146 98.8203C431.677 98.5964 431.286 98.2891 430.974 97.8984C430.667 97.5078 430.435 97.0599 430.279 96.5547C430.128 96.0443 430.052 95.5052 430.052 94.9375V94.6094C430.052 94.0417 430.128 93.5052 430.279 93C430.435 92.4896 430.667 92.0391 430.974 91.6484C431.286 91.2578 431.677 90.9505 432.146 90.7266C432.62 90.5026 433.174 90.3906 433.81 90.3906C434.471 90.3906 435.049 90.526 435.544 90.7969C436.039 91.0625 436.427 91.4271 436.708 91.8906C436.995 92.349 437.151 92.8698 437.177 93.4531H435.802C435.776 93.1042 435.677 92.7891 435.505 92.5078C435.339 92.2266 435.109 92.0026 434.818 91.8359C434.531 91.6641 434.195 91.5781 433.81 91.5781C433.367 91.5781 432.995 91.6667 432.693 91.8438C432.396 92.0156 432.159 92.25 431.982 92.5469C431.81 92.8385 431.685 93.1641 431.607 93.5234C431.534 93.8776 431.497 94.2396 431.497 94.6094V94.9375C431.497 95.3073 431.534 95.6719 431.607 96.0312C431.68 96.3906 431.802 96.7161 431.974 97.0078C432.151 97.2995 432.388 97.5339 432.685 97.7109C432.987 97.8828 433.362 97.9688 433.81 97.9688ZM440.247 87V99H438.802V87H440.247ZM439.904 94.4531L439.302 94.4297C439.307 93.8516 439.393 93.3177 439.56 92.8281C439.727 92.3333 439.961 91.9036 440.263 91.5391C440.565 91.1745 440.924 90.8932 441.341 90.6953C441.763 90.4922 442.229 90.3906 442.74 90.3906C443.156 90.3906 443.531 90.4479 443.865 90.5625C444.198 90.6719 444.482 90.849 444.716 91.0938C444.956 91.3385 445.138 91.6562 445.263 92.0469C445.388 92.4323 445.451 92.9036 445.451 93.4609V99H443.997V93.4453C443.997 93.0026 443.932 92.6484 443.802 92.3828C443.672 92.112 443.482 91.9167 443.232 91.7969C442.982 91.6719 442.674 91.6094 442.31 91.6094C441.951 91.6094 441.622 91.6849 441.326 91.8359C441.034 91.987 440.781 92.1953 440.568 92.4609C440.359 92.7266 440.195 93.0312 440.076 93.375C439.961 93.7135 439.904 94.0729 439.904 94.4531ZM447.232 94.8672V94.6875C447.232 94.0781 447.32 93.513 447.497 92.9922C447.674 92.4661 447.93 92.0104 448.263 91.625C448.596 91.2344 449 90.9323 449.474 90.7188C449.948 90.5 450.479 90.3906 451.068 90.3906C451.661 90.3906 452.195 90.5 452.669 90.7188C453.148 90.9323 453.555 91.2344 453.888 91.625C454.227 92.0104 454.484 92.4661 454.661 92.9922C454.839 93.513 454.927 94.0781 454.927 94.6875V94.8672C454.927 95.4766 454.839 96.0417 454.661 96.5625C454.484 97.0833 454.227 97.5391 453.888 97.9297C453.555 98.3151 453.151 98.6172 452.677 98.8359C452.208 99.0495 451.677 99.1562 451.083 99.1562C450.49 99.1562 449.956 99.0495 449.482 98.8359C449.008 98.6172 448.602 98.3151 448.263 97.9297C447.93 97.5391 447.674 97.0833 447.497 96.5625C447.32 96.0417 447.232 95.4766 447.232 94.8672ZM448.677 94.6875V94.8672C448.677 95.2891 448.727 95.6875 448.826 96.0625C448.924 96.4323 449.073 96.7604 449.271 97.0469C449.474 97.3333 449.727 97.5599 450.029 97.7266C450.331 97.888 450.682 97.9688 451.083 97.9688C451.479 97.9688 451.826 97.888 452.122 97.7266C452.424 97.5599 452.674 97.3333 452.872 97.0469C453.07 96.7604 453.219 96.4323 453.318 96.0625C453.422 95.6875 453.474 95.2891 453.474 94.8672V94.6875C453.474 94.2708 453.422 93.8776 453.318 93.5078C453.219 93.1328 453.068 92.8021 452.865 92.5156C452.667 92.224 452.417 91.9948 452.115 91.8281C451.818 91.6615 451.469 91.5781 451.068 91.5781C450.672 91.5781 450.323 91.6615 450.021 91.8281C449.724 91.9948 449.474 92.224 449.271 92.5156C449.073 92.8021 448.924 93.1328 448.826 93.5078C448.727 93.8776 448.677 94.2708 448.677 94.6875ZM450.177 100.93C450.177 100.695 450.247 100.497 450.388 100.336C450.534 100.174 450.747 100.094 451.029 100.094C451.305 100.094 451.516 100.174 451.661 100.336C451.813 100.497 451.888 100.695 451.888 100.93C451.888 101.154 451.813 101.344 451.661 101.5C451.516 101.661 451.305 101.742 451.029 101.742C450.747 101.742 450.534 101.661 450.388 101.5C450.247 101.344 450.177 101.154 450.177 100.93ZM458.185 92.3516V99H456.74V90.5469H458.107L458.185 92.3516ZM457.841 94.4531L457.24 94.4297C457.245 93.8516 457.331 93.3177 457.497 92.8281C457.664 92.3333 457.898 91.9036 458.201 91.5391C458.503 91.1745 458.862 90.8932 459.279 90.6953C459.701 90.4922 460.167 90.3906 460.677 90.3906C461.094 90.3906 461.469 90.4479 461.802 90.5625C462.135 90.6719 462.419 90.849 462.654 91.0938C462.893 91.3385 463.076 91.6562 463.201 92.0469C463.326 92.4323 463.388 92.9036 463.388 93.4609V99H461.935V93.4453C461.935 93.0026 461.87 92.6484 461.74 92.3828C461.609 92.112 461.419 91.9167 461.169 91.7969C460.919 91.6719 460.612 91.6094 460.247 91.6094C459.888 91.6094 459.56 91.6849 459.263 91.8359C458.971 91.987 458.719 92.1953 458.505 92.4609C458.297 92.7266 458.133 93.0312 458.013 93.375C457.898 93.7135 457.841 94.0729 457.841 94.4531ZM472.935 97.9688C473.279 97.9688 473.596 97.8984 473.888 97.7578C474.18 97.6172 474.419 97.4245 474.607 97.1797C474.794 96.9297 474.901 96.6458 474.927 96.3281H476.302C476.276 96.8281 476.107 97.2943 475.794 97.7266C475.487 98.1536 475.083 98.5 474.583 98.7656C474.083 99.026 473.534 99.1562 472.935 99.1562C472.299 99.1562 471.745 99.0443 471.271 98.8203C470.802 98.5964 470.411 98.2891 470.099 97.8984C469.792 97.5078 469.56 97.0599 469.404 96.5547C469.253 96.0443 469.177 95.5052 469.177 94.9375V94.6094C469.177 94.0417 469.253 93.5052 469.404 93C469.56 92.4896 469.792 92.0391 470.099 91.6484C470.411 91.2578 470.802 90.9505 471.271 90.7266C471.745 90.5026 472.299 90.3906 472.935 90.3906C473.596 90.3906 474.174 90.526 474.669 90.7969C475.164 91.0625 475.552 91.4271 475.833 91.8906C476.12 92.349 476.276 92.8698 476.302 93.4531H474.927C474.901 93.1042 474.802 92.7891 474.63 92.5078C474.464 92.2266 474.234 92.0026 473.943 91.8359C473.656 91.6641 473.32 91.5781 472.935 91.5781C472.492 91.5781 472.12 91.6667 471.818 91.8438C471.521 92.0156 471.284 92.25 471.107 92.5469C470.935 92.8385 470.81 93.1641 470.732 93.5234C470.659 93.8776 470.622 94.2396 470.622 94.6094V94.9375C470.622 95.3073 470.659 95.6719 470.732 96.0312C470.805 96.3906 470.927 96.7161 471.099 97.0078C471.276 97.2995 471.513 97.5339 471.81 97.7109C472.112 97.8828 472.487 97.9688 472.935 97.9688ZM477.544 94.8672V94.6875C477.544 94.0781 477.633 93.513 477.81 92.9922C477.987 92.4661 478.242 92.0104 478.576 91.625C478.909 91.2344 479.313 90.9323 479.786 90.7188C480.26 90.5 480.792 90.3906 481.38 90.3906C481.974 90.3906 482.508 90.5 482.982 90.7188C483.461 90.9323 483.867 91.2344 484.201 91.625C484.539 92.0104 484.797 92.4661 484.974 92.9922C485.151 93.513 485.24 94.0781 485.24 94.6875V94.8672C485.24 95.4766 485.151 96.0417 484.974 96.5625C484.797 97.0833 484.539 97.5391 484.201 97.9297C483.867 98.3151 483.464 98.6172 482.99 98.8359C482.521 99.0495 481.99 99.1562 481.396 99.1562C480.802 99.1562 480.268 99.0495 479.794 98.8359C479.32 98.6172 478.914 98.3151 478.576 97.9297C478.242 97.5391 477.987 97.0833 477.81 96.5625C477.633 96.0417 477.544 95.4766 477.544 94.8672ZM478.99 94.6875V94.8672C478.99 95.2891 479.039 95.6875 479.138 96.0625C479.237 96.4323 479.385 96.7604 479.583 97.0469C479.786 97.3333 480.039 97.5599 480.341 97.7266C480.643 97.888 480.995 97.9688 481.396 97.9688C481.792 97.9688 482.138 97.888 482.435 97.7266C482.737 97.5599 482.987 97.3333 483.185 97.0469C483.383 96.7604 483.531 96.4323 483.63 96.0625C483.734 95.6875 483.786 95.2891 483.786 94.8672V94.6875C483.786 94.2708 483.734 93.8776 483.63 93.5078C483.531 93.1328 483.38 92.8021 483.177 92.5156C482.979 92.224 482.729 91.9948 482.427 91.8281C482.13 91.6615 481.781 91.5781 481.38 91.5781C480.984 91.5781 480.635 91.6615 480.333 91.8281C480.036 91.9948 479.786 92.224 479.583 92.5156C479.385 92.8021 479.237 93.1328 479.138 93.5078C479.039 93.8776 478.99 94.2708 478.99 94.6875ZM480.521 89.2969L482.036 87H483.779L481.685 89.2969H480.521ZM495.943 96.7578C495.943 96.5495 495.896 96.3568 495.802 96.1797C495.714 95.9974 495.529 95.8333 495.247 95.6875C494.971 95.5365 494.555 95.4062 493.997 95.2969C493.529 95.1979 493.104 95.0807 492.724 94.9453C492.349 94.8099 492.029 94.6458 491.763 94.4531C491.503 94.2604 491.302 94.0339 491.161 93.7734C491.021 93.513 490.951 93.2083 490.951 92.8594C490.951 92.526 491.023 92.2109 491.169 91.9141C491.32 91.6172 491.531 91.3542 491.802 91.125C492.078 90.8958 492.409 90.7161 492.794 90.5859C493.18 90.4557 493.609 90.3906 494.083 90.3906C494.76 90.3906 495.339 90.5104 495.818 90.75C496.297 90.9896 496.664 91.3099 496.919 91.7109C497.174 92.1068 497.302 92.5469 497.302 93.0312H495.857C495.857 92.7969 495.786 92.5703 495.646 92.3516C495.51 92.1276 495.31 91.9427 495.044 91.7969C494.784 91.651 494.464 91.5781 494.083 91.5781C493.682 91.5781 493.357 91.6406 493.107 91.7656C492.862 91.8854 492.682 92.0391 492.568 92.2266C492.458 92.4141 492.404 92.612 492.404 92.8203C492.404 92.9766 492.43 93.1172 492.482 93.2422C492.539 93.362 492.638 93.474 492.779 93.5781C492.919 93.6771 493.117 93.7708 493.372 93.8594C493.628 93.9479 493.953 94.0365 494.349 94.125C495.042 94.2812 495.612 94.4688 496.06 94.6875C496.508 94.9062 496.841 95.1745 497.06 95.4922C497.279 95.8099 497.388 96.1953 497.388 96.6484C497.388 97.0182 497.31 97.3568 497.154 97.6641C497.003 97.9714 496.781 98.237 496.49 98.4609C496.203 98.6797 495.859 98.8516 495.458 98.9766C495.063 99.0964 494.617 99.1562 494.122 99.1562C493.378 99.1562 492.747 99.0234 492.232 98.7578C491.716 98.4922 491.326 98.1484 491.06 97.7266C490.794 97.3047 490.661 96.8594 490.661 96.3906H492.115C492.135 96.7865 492.25 97.1016 492.458 97.3359C492.667 97.5651 492.922 97.7292 493.224 97.8281C493.526 97.9219 493.826 97.9688 494.122 97.9688C494.518 97.9688 494.849 97.9167 495.115 97.8125C495.385 97.7083 495.591 97.5651 495.732 97.3828C495.872 97.2005 495.943 96.9922 495.943 96.7578ZM504.271 97.5547V93.2031C504.271 92.8698 504.203 92.5807 504.068 92.3359C503.938 92.0859 503.74 91.8932 503.474 91.7578C503.208 91.6224 502.88 91.5547 502.49 91.5547C502.125 91.5547 501.805 91.6172 501.529 91.7422C501.258 91.8672 501.044 92.0312 500.888 92.2344C500.737 92.4375 500.661 92.6562 500.661 92.8906H499.216C499.216 92.5885 499.294 92.2891 499.451 91.9922C499.607 91.6953 499.831 91.4271 500.122 91.1875C500.419 90.9427 500.773 90.75 501.185 90.6094C501.602 90.4635 502.065 90.3906 502.576 90.3906C503.19 90.3906 503.732 90.4948 504.201 90.7031C504.674 90.9115 505.044 91.2266 505.31 91.6484C505.581 92.0651 505.716 92.5885 505.716 93.2188V97.1562C505.716 97.4375 505.74 97.737 505.786 98.0547C505.839 98.3724 505.914 98.6458 506.013 98.875V99H504.505C504.432 98.8333 504.375 98.612 504.333 98.3359C504.292 98.0547 504.271 97.7943 504.271 97.5547ZM504.521 93.875L504.536 94.8906H503.076C502.664 94.8906 502.297 94.9245 501.974 94.9922C501.651 95.0547 501.38 95.151 501.161 95.2812C500.943 95.4115 500.776 95.5755 500.661 95.7734C500.547 95.9661 500.49 96.1927 500.49 96.4531C500.49 96.7188 500.549 96.9609 500.669 97.1797C500.789 97.3984 500.969 97.5729 501.208 97.7031C501.453 97.8281 501.753 97.8906 502.107 97.8906C502.549 97.8906 502.94 97.7969 503.279 97.6094C503.617 97.4219 503.885 97.1927 504.083 96.9219C504.286 96.651 504.396 96.388 504.411 96.1328L505.029 96.8281C504.992 97.0469 504.893 97.2891 504.732 97.5547C504.57 97.8203 504.354 98.0755 504.083 98.3203C503.818 98.5599 503.5 98.7604 503.13 98.9219C502.766 99.0781 502.354 99.1562 501.896 99.1562C501.323 99.1562 500.82 99.0443 500.388 98.8203C499.961 98.5964 499.628 98.2969 499.388 97.9219C499.154 97.5417 499.036 97.1172 499.036 96.6484C499.036 96.1953 499.125 95.7969 499.302 95.4531C499.479 95.1042 499.734 94.8151 500.068 94.5859C500.401 94.3516 500.802 94.1745 501.271 94.0547C501.74 93.9349 502.263 93.875 502.841 93.875H504.521ZM503.818 87.5234H504.99C504.99 87.8464 504.896 88.1354 504.708 88.3906C504.521 88.6406 504.255 88.8359 503.911 88.9766C503.568 89.1172 503.156 89.1875 502.677 89.1875C502.203 89.1875 501.794 89.1172 501.451 88.9766C501.107 88.8359 500.841 88.6406 500.654 88.3906C500.466 88.1354 500.372 87.8464 500.372 87.5234H501.536C501.536 87.763 501.622 87.9766 501.794 88.1641C501.966 88.3516 502.26 88.4453 502.677 88.4453C503.094 88.4453 503.388 88.3516 503.56 88.1641C503.732 87.9766 503.818 87.763 503.818 87.5234ZM504.263 85.2578L504.919 85.4453C504.919 85.6953 504.862 85.9271 504.747 86.1406C504.638 86.3542 504.487 86.526 504.294 86.6562C504.102 86.7812 503.878 86.8438 503.622 86.8438C503.341 86.8438 503.115 86.7943 502.943 86.6953C502.776 86.5964 502.617 86.4974 502.466 86.3984C502.315 86.2995 502.125 86.25 501.896 86.25C501.719 86.25 501.568 86.3177 501.443 86.4531C501.318 86.5833 501.255 86.7474 501.255 86.9453L500.599 86.7812C500.599 86.5312 500.654 86.2995 500.763 86.0859C500.872 85.8672 501.023 85.6927 501.216 85.5625C501.414 85.4271 501.641 85.3594 501.896 85.3594C502.13 85.3594 502.336 85.4089 502.513 85.5078C502.69 85.6068 502.862 85.7057 503.029 85.8047C503.201 85.8984 503.398 85.9453 503.622 85.9453C503.794 85.9453 503.943 85.8802 504.068 85.75C504.198 85.6146 504.263 85.4505 504.263 85.2578ZM509.435 92.3516V99H507.99V90.5469H509.357L509.435 92.3516ZM509.091 94.4531L508.49 94.4297C508.495 93.8516 508.581 93.3177 508.747 92.8281C508.914 92.3333 509.148 91.9036 509.451 91.5391C509.753 91.1745 510.112 90.8932 510.529 90.6953C510.951 90.4922 511.417 90.3906 511.927 90.3906C512.344 90.3906 512.719 90.4479 513.052 90.5625C513.385 90.6719 513.669 90.849 513.904 91.0938C514.143 91.3385 514.326 91.6562 514.451 92.0469C514.576 92.4323 514.638 92.9036 514.638 93.4609V99H513.185V93.4453C513.185 93.0026 513.12 92.6484 512.99 92.3828C512.859 92.112 512.669 91.9167 512.419 91.7969C512.169 91.6719 511.862 91.6094 511.497 91.6094C511.138 91.6094 510.81 91.6849 510.513 91.8359C510.221 91.987 509.969 92.1953 509.755 92.4609C509.547 92.7266 509.383 93.0312 509.263 93.375C509.148 93.7135 509.091 94.0729 509.091 94.4531ZM516.857 98.2344C516.857 97.9896 516.932 97.7839 517.083 97.6172C517.24 97.4453 517.464 97.3594 517.755 97.3594C518.047 97.3594 518.268 97.4453 518.419 97.6172C518.576 97.7839 518.654 97.9896 518.654 98.2344C518.654 98.474 518.576 98.6771 518.419 98.8438C518.268 99.0104 518.047 99.0938 517.755 99.0938C517.464 99.0938 517.24 99.0104 517.083 98.8438C516.932 98.6771 516.857 98.474 516.857 98.2344Z" fill="black"/>
<rect x="127" y="176.421" width="163" height="42" rx="10" transform="rotate(-10.3988 127 176.421)" fill="#004CDF"/>
<path d="M152.664 196.899L152.886 198.105L146.961 199.192L146.74 197.986L152.664 196.899ZM145.208 187.949L147.261 199.137L145.778 199.41L143.725 188.221L145.208 187.949ZM150.931 191.871L151.153 193.078L146.012 194.021L145.791 192.815L150.931 191.871ZM150.756 186.931L150.978 188.145L145.131 189.218L144.908 188.004L150.756 186.931ZM154.729 191.008L155.929 197.547L154.507 197.808L152.981 189.493L154.326 189.247L154.729 191.008ZM154.77 193.137L154.174 193.222C154.075 192.653 154.063 192.112 154.138 191.6C154.213 191.084 154.366 190.619 154.597 190.206C154.829 189.792 155.131 189.451 155.505 189.181C155.884 188.905 156.324 188.721 156.826 188.629C157.236 188.554 157.615 188.542 157.963 188.595C158.311 188.642 158.622 188.765 158.897 188.964C159.177 189.161 159.413 189.441 159.607 189.803C159.799 190.159 159.946 190.611 160.046 191.16L161.046 196.608L159.617 196.87L158.614 191.406C158.534 190.971 158.406 190.634 158.23 190.397C158.054 190.154 157.831 189.996 157.564 189.923C157.295 189.845 156.982 189.839 156.623 189.905C156.27 189.97 155.961 190.104 155.696 190.306C155.436 190.507 155.225 190.757 155.063 191.057C154.906 191.356 154.8 191.685 154.744 192.045C154.693 192.399 154.701 192.763 154.77 193.137ZM167.066 186.909L168.357 186.672L169.851 194.809C169.985 195.542 169.951 196.194 169.749 196.766C169.547 197.338 169.204 197.806 168.72 198.17C168.242 198.538 167.657 198.786 166.966 198.913C166.679 198.966 166.332 198.982 165.926 198.961C165.526 198.944 165.119 198.863 164.706 198.716C164.298 198.574 163.936 198.346 163.619 198.034L164.21 197.052C164.635 197.408 165.052 197.633 165.462 197.727C165.876 197.821 166.27 197.833 166.644 197.765C167.095 197.682 167.469 197.526 167.765 197.297C168.062 197.068 168.27 196.77 168.388 196.404C168.512 196.042 168.53 195.621 168.442 195.139L167.271 188.761L167.066 186.909ZM162.121 192.208L162.092 192.047C161.975 191.412 161.944 190.822 161.997 190.277C162.055 189.727 162.191 189.238 162.404 188.813C162.622 188.386 162.915 188.036 163.283 187.762C163.65 187.483 164.087 187.296 164.595 187.203C165.117 187.107 165.59 187.116 166.013 187.229C166.44 187.336 166.822 187.539 167.157 187.837C167.497 188.13 167.791 188.505 168.039 188.962C168.287 189.42 168.498 189.95 168.672 190.554L168.802 191.26C168.858 191.88 168.848 192.449 168.774 192.966C168.704 193.481 168.562 193.936 168.349 194.33C168.14 194.723 167.856 195.048 167.495 195.305C167.134 195.557 166.689 195.731 166.161 195.828C165.664 195.919 165.194 195.897 164.751 195.761C164.313 195.624 163.916 195.393 163.559 195.066C163.203 194.74 162.901 194.334 162.653 193.85C162.41 193.36 162.232 192.813 162.121 192.208ZM163.513 191.786L163.543 191.948C163.619 192.363 163.732 192.744 163.88 193.093C164.034 193.441 164.223 193.737 164.448 193.982C164.678 194.225 164.946 194.401 165.252 194.509C165.557 194.612 165.902 194.628 166.286 194.558C166.757 194.471 167.128 194.3 167.399 194.044C167.669 193.788 167.864 193.479 167.984 193.118C168.108 192.757 168.186 192.374 168.218 191.971L167.878 190.119C167.77 189.848 167.633 189.593 167.467 189.353C167.306 189.107 167.114 188.899 166.892 188.728C166.674 188.551 166.421 188.425 166.132 188.351C165.843 188.277 165.519 188.273 165.16 188.339C164.771 188.41 164.45 188.554 164.199 188.769C163.951 188.979 163.764 189.241 163.636 189.556C163.513 189.864 163.441 190.211 163.422 190.596C163.407 190.974 163.437 191.371 163.513 191.786ZM171.421 182.503L173.587 194.306L172.158 194.569L169.992 182.766L171.421 182.503ZM175.888 185.29L177.414 193.604L175.984 193.866L174.458 185.552L175.888 185.29ZM173.946 183.366C173.904 183.136 173.937 182.929 174.047 182.744C174.161 182.559 174.356 182.441 174.633 182.39C174.904 182.341 175.126 182.382 175.299 182.514C175.477 182.646 175.587 182.827 175.629 183.058C175.669 183.278 175.63 183.481 175.511 183.667C175.395 183.847 175.202 183.962 174.93 184.012C174.654 184.063 174.43 184.024 174.258 183.897C174.091 183.764 173.987 183.587 173.946 183.366ZM184.132 190.091C184.094 189.887 184.014 189.705 183.889 189.548C183.769 189.385 183.558 189.257 183.255 189.164C182.956 189.065 182.523 189.013 181.955 189.006C181.476 188.993 181.037 188.954 180.639 188.89C180.246 188.824 179.901 188.721 179.605 188.579C179.314 188.436 179.076 188.25 178.891 188.019C178.705 187.788 178.581 187.501 178.518 187.158C178.458 186.83 178.473 186.507 178.563 186.189C178.658 185.87 178.818 185.573 179.043 185.299C179.273 185.023 179.566 184.787 179.921 184.589C180.277 184.392 180.688 184.25 181.154 184.164C181.82 184.042 182.41 184.056 182.925 184.205C183.439 184.354 183.858 184.603 184.182 184.951C184.504 185.294 184.709 185.704 184.796 186.181L183.375 186.442C183.333 186.211 183.223 186.001 183.045 185.811C182.871 185.615 182.641 185.47 182.353 185.374C182.07 185.278 181.742 185.264 181.368 185.332C180.974 185.405 180.665 185.525 180.442 185.693C180.222 185.855 180.073 186.039 179.995 186.244C179.921 186.448 179.903 186.652 179.94 186.857C179.969 187.011 180.02 187.145 180.093 187.258C180.171 187.366 180.289 187.458 180.446 187.535C180.602 187.607 180.814 187.664 181.081 187.705C181.348 187.746 181.684 187.774 182.089 187.79C182.799 187.818 183.394 187.9 183.874 188.034C184.354 188.168 184.73 188.372 185.002 188.645C185.275 188.918 185.452 189.277 185.534 189.723C185.601 190.087 185.585 190.434 185.487 190.764C185.394 191.094 185.224 191.395 184.977 191.668C184.735 191.935 184.428 192.166 184.056 192.361C183.688 192.55 183.261 192.69 182.775 192.779C182.042 192.913 181.398 192.897 180.843 192.728C180.288 192.56 179.842 192.293 179.504 191.926C179.167 191.559 178.956 191.145 178.871 190.684L180.301 190.421C180.392 190.807 180.562 191.096 180.809 191.289C181.056 191.477 181.336 191.592 181.651 191.635C181.965 191.673 182.268 191.665 182.56 191.611C182.95 191.54 183.265 191.429 183.508 191.278C183.755 191.127 183.932 190.949 184.037 190.744C184.143 190.54 184.174 190.322 184.132 190.091ZM187.081 179.629L189.247 191.432L187.826 191.693L185.66 179.89L187.081 179.629ZM188.088 187.022L187.492 187.108C187.393 186.538 187.381 185.998 187.457 185.486C187.532 184.969 187.685 184.504 187.916 184.091C188.147 183.678 188.45 183.337 188.824 183.067C189.202 182.791 189.642 182.607 190.144 182.515C190.554 182.439 190.933 182.428 191.282 182.481C191.63 182.528 191.941 182.651 192.215 182.849C192.495 183.047 192.732 183.326 192.925 183.688C193.118 184.045 193.264 184.497 193.365 185.045L194.365 190.493L192.936 190.755L191.933 185.292C191.853 184.857 191.725 184.52 191.549 184.282C191.372 184.039 191.15 183.882 190.882 183.809C190.614 183.731 190.3 183.725 189.942 183.791C189.588 183.856 189.279 183.989 189.014 184.191C188.755 184.393 188.544 184.643 188.382 184.943C188.225 185.242 188.119 185.571 188.063 185.931C188.011 186.284 188.02 186.648 188.088 187.022Z" fill="white"/>
<path fill-rule="evenodd" clip-rule="evenodd" d="M273.477 174.616C273.301 174.871 272.951 174.936 272.695 174.759L266.019 170.154C265.763 169.977 265.699 169.627 265.875 169.371L266.088 169.063C266.265 168.807 266.615 168.743 266.871 168.919L272.775 172.992L276.848 167.088C277.025 166.832 277.375 166.768 277.631 166.944L277.939 167.157C278.195 167.334 278.259 167.684 278.083 167.94L273.477 174.616Z" fill="white"/>
<rect x="346.368" y="137.31" width="163" height="42" rx="10" transform="rotate(11.4415 346.368 137.31)" fill="#004CDF"/>
<path d="M362.572 165.865L362.329 167.067L356.425 165.872L356.669 164.67L362.572 165.865ZM358.98 154.784L356.724 165.933L355.246 165.634L357.503 154.485L358.98 154.784ZM362.834 160.553L362.591 161.756L357.468 160.719L357.712 159.517L362.834 160.553ZM364.509 155.903L364.264 157.112L358.437 155.933L358.682 154.723L364.509 155.903ZM366.68 161.164L365.361 167.681L363.945 167.394L365.622 159.109L366.962 159.38L366.68 161.164ZM365.926 163.156L365.341 163.014C365.461 162.448 365.651 161.942 365.912 161.495C366.173 161.043 366.488 160.669 366.857 160.371C367.225 160.074 367.633 159.869 368.081 159.758C368.535 159.643 369.012 159.636 369.512 159.737C369.92 159.819 370.276 159.95 370.58 160.128C370.885 160.302 371.128 160.532 371.31 160.818C371.496 161.106 371.612 161.453 371.657 161.861C371.703 162.263 371.67 162.738 371.56 163.284L370.461 168.713L369.037 168.425L370.139 162.98C370.227 162.546 370.233 162.186 370.158 161.9C370.084 161.609 369.937 161.38 369.715 161.213C369.495 161.041 369.206 160.918 368.849 160.846C368.497 160.775 368.16 160.784 367.839 160.873C367.523 160.963 367.234 161.117 366.972 161.335C366.716 161.554 366.494 161.82 366.309 162.133C366.129 162.443 366.002 162.783 365.926 163.156ZM379.657 161.95L380.944 162.21L379.303 170.319C379.155 171.049 378.881 171.642 378.48 172.097C378.08 172.553 377.587 172.86 377.003 173.018C376.422 173.182 375.787 173.194 375.098 173.055C374.812 172.997 374.485 172.883 374.115 172.713C373.75 172.548 373.403 172.321 373.073 172.031C372.748 171.748 372.497 171.402 372.319 170.994L373.232 170.302C373.495 170.791 373.798 171.155 374.143 171.395C374.493 171.636 374.854 171.794 375.227 171.869C375.676 171.96 376.081 171.955 376.442 171.852C376.802 171.75 377.106 171.551 377.351 171.255C377.601 170.966 377.775 170.581 377.872 170.101L379.158 163.746L379.657 161.95ZM373.096 165.029L373.128 164.869C373.256 164.236 373.447 163.676 373.699 163.191C373.957 162.701 374.265 162.298 374.621 161.982C374.982 161.668 375.385 161.452 375.828 161.334C376.273 161.211 376.748 161.201 377.253 161.304C377.774 161.409 378.21 161.593 378.561 161.855C378.917 162.113 379.196 162.443 379.396 162.845C379.603 163.243 379.736 163.701 379.796 164.218C379.856 164.734 379.855 165.305 379.792 165.93L379.65 166.635C379.471 167.231 379.25 167.755 378.989 168.207C378.732 168.66 378.432 169.029 378.087 169.316C377.747 169.603 377.362 169.799 376.932 169.903C376.502 170.002 376.025 169.998 375.499 169.892C375.004 169.792 374.576 169.596 374.215 169.305C373.859 169.015 373.577 168.653 373.367 168.217C373.158 167.781 373.028 167.293 372.978 166.751C372.935 166.206 372.974 165.632 373.096 165.029ZM374.545 165.155L374.512 165.316C374.429 165.73 374.391 166.126 374.399 166.505C374.413 166.885 374.478 167.23 374.596 167.541C374.719 167.853 374.902 168.116 375.146 168.33C375.39 168.539 375.704 168.682 376.087 168.76C376.557 168.855 376.965 168.834 377.311 168.696C377.658 168.559 377.954 168.346 378.198 168.055C378.448 167.765 378.663 167.44 378.843 167.077L379.216 165.232C379.217 164.94 379.185 164.652 379.12 164.368C379.062 164.079 378.961 163.815 378.819 163.573C378.682 163.328 378.494 163.117 378.253 162.941C378.012 162.764 377.713 162.64 377.356 162.568C376.968 162.489 376.617 162.503 376.303 162.61C375.996 162.712 375.724 162.886 375.489 163.131C375.259 163.371 375.064 163.666 374.903 164.016C374.748 164.362 374.628 164.742 374.545 165.155ZM385.338 159.481L382.958 171.242L381.533 170.954L383.914 159.192L385.338 159.481ZM388.448 163.729L386.771 172.014L385.347 171.726L387.024 163.44L388.448 163.729ZM387.361 161.221C387.408 160.991 387.516 160.811 387.686 160.681C387.861 160.552 388.086 160.515 388.362 160.571C388.632 160.625 388.823 160.746 388.934 160.934C389.05 161.122 389.085 161.331 389.038 161.561C388.994 161.78 388.881 161.954 388.701 162.082C388.527 162.206 388.305 162.241 388.035 162.186C387.759 162.131 387.565 162.012 387.453 161.83C387.347 161.643 387.317 161.441 387.361 161.221ZM394.314 171.253C394.355 171.049 394.348 170.85 394.291 170.658C394.24 170.462 394.092 170.265 393.845 170.066C393.604 169.863 393.222 169.653 392.697 169.435C392.257 169.245 391.865 169.046 391.519 168.838C391.178 168.631 390.897 168.406 390.675 168.165C390.458 167.924 390.306 167.662 390.22 167.379C390.134 167.096 390.125 166.784 390.194 166.442C390.261 166.115 390.394 165.82 390.596 165.558C390.803 165.297 391.062 165.081 391.373 164.911C391.689 164.741 392.049 164.63 392.452 164.579C392.856 164.528 393.29 164.549 393.755 164.643C394.418 164.778 394.961 165.01 395.383 165.34C395.805 165.669 396.102 166.056 396.272 166.5C396.444 166.939 396.482 167.395 396.386 167.87L394.969 167.583C395.016 167.354 394.992 167.118 394.897 166.875C394.809 166.629 394.649 166.408 394.418 166.212C394.191 166.018 393.892 165.883 393.519 165.807C393.126 165.728 392.795 165.724 392.525 165.797C392.261 165.866 392.054 165.981 391.905 166.142C391.761 166.304 391.668 166.487 391.626 166.692C391.595 166.845 391.593 166.988 391.619 167.121C391.652 167.249 391.726 167.379 391.844 167.509C391.962 167.634 392.137 167.765 392.37 167.902C392.602 168.04 392.904 168.191 393.274 168.356C393.922 168.647 394.444 168.944 394.84 169.247C395.235 169.55 395.509 169.879 395.66 170.234C395.811 170.589 395.842 170.988 395.752 171.432C395.679 171.795 395.535 172.111 395.321 172.381C395.112 172.652 394.843 172.869 394.512 173.031C394.188 173.188 393.817 173.288 393.399 173.331C392.987 173.37 392.539 173.341 392.054 173.242C391.324 173.095 390.733 172.84 390.28 172.477C389.827 172.114 389.513 171.7 389.336 171.234C389.159 170.768 389.118 170.305 389.211 169.845L390.635 170.134C390.577 170.526 390.627 170.857 390.784 171.128C390.943 171.394 391.161 171.606 391.437 171.763C391.715 171.914 391.999 172.02 392.29 172.079C392.678 172.157 393.012 172.172 393.293 172.122C393.579 172.074 393.809 171.974 393.983 171.824C394.157 171.673 394.268 171.483 394.314 171.253ZM400.944 162.639L398.563 174.4L397.147 174.114L399.527 162.352L400.944 162.639ZM399.128 169.876L398.543 169.733C398.663 169.168 398.853 168.662 399.114 168.215C399.375 167.763 399.69 167.388 400.058 167.091C400.427 166.793 400.835 166.589 401.283 166.478C401.736 166.362 402.213 166.355 402.714 166.457C403.122 166.539 403.478 166.67 403.782 166.848C404.087 167.021 404.33 167.251 404.511 167.538C404.698 167.825 404.813 168.173 404.858 168.58C404.904 168.983 404.872 169.457 404.762 170.004L403.663 175.433L402.239 175.144L403.341 169.7C403.428 169.266 403.435 168.906 403.36 168.62C403.286 168.329 403.138 168.099 402.917 167.932C402.697 167.76 402.408 167.638 402.051 167.566C401.699 167.495 401.362 167.503 401.041 167.593C400.725 167.683 400.436 167.837 400.174 168.055C399.917 168.274 399.696 168.54 399.511 168.853C399.331 169.162 399.204 169.503 399.128 169.876Z" fill="white"/>
<path fill-rule="evenodd" clip-rule="evenodd" d="M483.004 190.126C482.745 190.298 482.396 190.227 482.224 189.968L477.741 183.21C477.569 182.951 477.64 182.602 477.899 182.43L478.211 182.223C478.47 182.051 478.819 182.122 478.991 182.381L482.956 188.358L488.933 184.393C489.192 184.221 489.541 184.292 489.713 184.551L489.92 184.863C490.092 185.122 490.021 185.471 489.762 185.643L483.004 190.126Z" fill="white"/>
<rect x="245.718" y="167.201" width="162" height="41" rx="9.5" transform="rotate(2.69554 245.718 167.201)" fill="white" stroke="#004CDF"/>
<path d="M262.072 191.77L265.874 182.29L267.505 182.367L262.764 193.532L261.601 193.477L262.072 191.77ZM259.397 181.985L262.26 191.779L262.592 193.523L261.429 193.469L257.766 181.909L259.397 181.985ZM270.247 185.421L269.85 193.865L268.398 193.797L268.796 185.353L270.247 185.421ZM268.792 183.108C268.803 182.874 268.882 182.68 269.03 182.525C269.184 182.371 269.401 182.3 269.682 182.313C269.957 182.326 270.164 182.417 270.302 182.585C270.446 182.753 270.512 182.955 270.501 183.189C270.49 183.412 270.406 183.601 270.247 183.755C270.094 183.905 269.88 183.973 269.604 183.96C269.323 183.947 269.114 183.859 268.975 183.696C268.842 183.528 268.781 183.332 268.792 183.108ZM275.664 194.295C275.076 194.268 274.547 194.144 274.078 193.923C273.614 193.698 273.219 193.395 272.893 193.015C272.572 192.635 272.332 192.191 272.174 191.683C272.015 191.175 271.95 190.624 271.978 190.031L271.993 189.704C272.025 189.017 272.156 188.41 272.384 187.884C272.612 187.352 272.909 186.908 273.276 186.549C273.642 186.191 274.051 185.926 274.502 185.755C274.953 185.583 275.415 185.508 275.889 185.531C276.492 185.559 277.008 185.688 277.435 185.916C277.867 186.145 278.215 186.453 278.479 186.841C278.742 187.224 278.93 187.671 279.041 188.182C279.153 188.688 279.195 189.237 279.167 189.83L279.136 190.478L272.831 190.181L272.886 189.003L277.748 189.231L277.753 189.122C277.75 188.747 277.689 188.379 277.571 188.019C277.457 187.659 277.263 187.358 276.987 187.115C276.712 186.873 276.327 186.74 275.833 186.717C275.505 186.701 275.2 186.757 274.918 186.885C274.636 187.007 274.389 187.199 274.179 187.46C273.969 187.721 273.8 188.044 273.672 188.429C273.544 188.815 273.469 189.262 273.445 189.772L273.429 190.1C273.41 190.5 273.447 190.88 273.54 191.239C273.638 191.593 273.787 191.908 273.988 192.183C274.194 192.459 274.447 192.679 274.747 192.844C275.052 193.01 275.402 193.102 275.797 193.121C276.307 193.145 276.744 193.061 277.108 192.869C277.471 192.678 277.794 192.414 278.076 192.078L278.917 192.814C278.722 193.081 278.478 193.333 278.185 193.569C277.893 193.806 277.537 193.992 277.119 194.129C276.706 194.266 276.221 194.322 275.664 194.295ZM284.575 186.096L284.523 187.204L279.958 186.989L280.01 185.881L284.575 186.096ZM281.652 183.901L283.095 183.969L282.7 192.374C282.686 192.66 282.72 192.878 282.802 193.028C282.883 193.178 282.993 193.279 283.132 193.333C283.27 193.386 283.42 193.417 283.581 193.424C283.701 193.43 283.826 193.426 283.957 193.411C284.093 193.391 284.196 193.375 284.264 193.363L284.217 194.542C284.1 194.573 283.948 194.599 283.759 194.622C283.575 194.65 283.353 194.657 283.093 194.645C282.739 194.628 282.418 194.543 282.128 194.388C281.838 194.234 281.612 193.989 281.451 193.653C281.295 193.312 281.23 192.86 281.256 192.298L281.652 183.901ZM287.627 188.046L287.315 194.687L285.871 194.619L286.268 186.176L287.634 186.24L287.627 188.046ZM287.185 190.129L286.585 190.078C286.618 189.5 286.729 188.971 286.918 188.49C287.108 188.004 287.362 187.585 287.681 187.235C288 186.885 288.372 186.621 288.798 186.443C289.229 186.26 289.699 186.181 290.209 186.205C290.625 186.224 290.997 186.299 291.325 186.429C291.652 186.554 291.928 186.745 292.15 187C292.378 187.256 292.545 187.582 292.652 187.978C292.758 188.369 292.799 188.842 292.773 189.399L292.512 194.932L291.06 194.864L291.322 189.315C291.343 188.873 291.294 188.516 291.177 188.245C291.059 187.968 290.879 187.764 290.634 187.633C290.391 187.496 290.087 187.419 289.722 187.402C289.363 187.385 289.032 187.445 288.728 187.582C288.43 187.719 288.168 187.915 287.942 188.171C287.722 188.426 287.543 188.723 287.407 189.061C287.277 189.393 287.203 189.75 287.185 190.129ZM299.752 193.826L299.956 189.479C299.972 189.146 299.918 188.854 299.794 188.604C299.676 188.348 299.487 188.146 299.228 187.998C298.969 187.85 298.645 187.767 298.255 187.749C297.89 187.732 297.568 187.779 297.286 187.891C297.01 188.003 296.788 188.157 296.623 188.353C296.462 188.548 296.377 188.763 296.366 188.997L294.922 188.929C294.936 188.628 295.028 188.332 295.198 188.043C295.368 187.754 295.605 187.496 295.907 187.271C296.215 187.04 296.578 186.864 296.996 186.743C297.419 186.617 297.885 186.566 298.395 186.59C299.009 186.619 299.545 186.749 300.004 186.979C300.467 187.209 300.822 187.541 301.067 187.975C301.318 188.404 301.429 188.933 301.399 189.563L301.214 193.496C301.201 193.777 301.21 194.077 301.242 194.397C301.279 194.717 301.342 194.993 301.43 195.227L301.424 195.352L299.918 195.281C299.853 195.111 299.806 194.887 299.777 194.609C299.749 194.326 299.74 194.065 299.752 193.826ZM300.174 190.162L300.142 191.177L298.683 191.109C298.272 191.089 297.904 191.106 297.578 191.158C297.252 191.206 296.977 191.289 296.753 191.409C296.528 191.529 296.354 191.685 296.23 191.877C296.107 192.064 296.039 192.288 296.026 192.548C296.014 192.813 296.062 193.058 296.172 193.282C296.281 193.506 296.452 193.689 296.686 193.83C296.924 193.967 297.22 194.043 297.574 194.06C298.016 194.081 298.411 194.005 298.758 193.834C299.105 193.663 299.384 193.446 299.594 193.185C299.81 192.924 299.931 192.667 299.959 192.412L300.543 193.136C300.496 193.353 300.386 193.59 300.212 193.848C300.038 194.105 299.81 194.35 299.528 194.582C299.252 194.809 298.925 194.994 298.548 195.138C298.177 195.277 297.762 195.336 297.304 195.314C296.732 195.287 296.235 195.152 295.814 194.908C295.398 194.664 295.079 194.349 294.857 193.963C294.641 193.572 294.544 193.143 294.566 192.675C294.587 192.222 294.694 191.828 294.887 191.493C295.081 191.153 295.349 190.876 295.693 190.663C296.037 190.444 296.446 190.286 296.92 190.189C297.394 190.091 297.919 190.056 298.497 190.083L300.174 190.162ZM305.153 188.746L304.834 195.512L303.383 195.444L303.78 187L305.154 187.065L305.153 188.746ZM304.752 190.956L304.082 190.901C304.114 190.324 304.214 189.794 304.383 189.312C304.552 188.825 304.788 188.406 305.092 188.055C305.395 187.704 305.764 187.44 306.2 187.263C306.637 187.08 307.136 187.002 307.697 187.028C308.093 187.047 308.454 187.121 308.782 187.251C309.11 187.376 309.39 187.564 309.623 187.815C309.857 188.066 310.032 188.382 310.15 188.763C310.267 189.144 310.314 189.599 310.289 190.13L310.024 195.757L308.58 195.689L308.842 190.132C308.863 189.69 308.804 189.333 308.665 189.06C308.532 188.788 308.333 188.586 308.068 188.453C307.804 188.316 307.489 188.238 307.125 188.221C306.698 188.201 306.338 188.26 306.045 188.397C305.752 188.535 305.513 188.732 305.329 188.989C305.145 189.246 305.006 189.545 304.912 189.885C304.823 190.219 304.769 190.577 304.752 190.956ZM310.26 190.418L309.278 190.669C309.305 190.206 309.401 189.765 309.567 189.345C309.738 188.926 309.972 188.556 310.268 188.236C310.57 187.917 310.934 187.671 311.359 187.498C311.785 187.32 312.265 187.243 312.801 187.268C313.254 187.29 313.652 187.368 313.994 187.504C314.343 187.641 314.63 187.839 314.858 188.1C315.091 188.356 315.261 188.68 315.368 189.071C315.474 189.462 315.515 189.922 315.49 190.453L315.229 196.002L313.778 195.933L314.039 190.369C314.062 189.896 314.004 189.525 313.865 189.258C313.732 188.986 313.532 188.791 313.267 188.675C313.007 188.553 312.692 188.483 312.322 188.466C312.005 188.451 311.722 188.492 311.472 188.59C311.222 188.688 311.01 188.829 310.834 189.014C310.659 189.193 310.521 189.403 310.421 189.643C310.326 189.884 310.273 190.142 310.26 190.418ZM320.911 196.426C320.323 196.398 319.794 196.274 319.325 196.054C318.861 195.828 318.466 195.526 318.14 195.145C317.819 194.765 317.579 194.321 317.42 193.813C317.262 193.305 317.196 192.755 317.224 192.162L317.24 191.834C317.272 191.147 317.402 190.541 317.63 190.014C317.859 189.483 318.156 189.038 318.522 188.68C318.889 188.321 319.297 188.057 319.749 187.885C320.2 187.713 320.662 187.639 321.136 187.661C321.739 187.689 322.254 187.818 322.682 188.046C323.114 188.275 323.462 188.584 323.725 188.972C323.989 189.354 324.176 189.801 324.288 190.312C324.4 190.818 324.442 191.367 324.414 191.96L324.383 192.608L318.078 192.311L318.133 191.133L322.995 191.362L323 191.252C322.997 190.877 322.936 190.509 322.817 190.149C322.704 189.789 322.51 189.488 322.234 189.245C321.959 189.003 321.574 188.87 321.08 188.847C320.752 188.832 320.447 188.888 320.165 189.015C319.883 189.137 319.636 189.329 319.426 189.59C319.215 189.852 319.046 190.175 318.919 190.56C318.791 190.945 318.715 191.392 318.691 191.902L318.676 192.23C318.657 192.63 318.694 193.01 318.786 193.369C318.885 193.723 319.034 194.038 319.235 194.313C319.441 194.589 319.694 194.809 319.994 194.975C320.299 195.14 320.649 195.232 321.044 195.251C321.554 195.275 321.991 195.191 322.354 195C322.718 194.808 323.041 194.544 323.322 194.208L324.164 194.944C323.969 195.211 323.725 195.463 323.432 195.7C323.139 195.936 322.784 196.123 322.365 196.259C321.952 196.396 321.467 196.452 320.911 196.426ZM330.911 194.495C330.921 194.287 330.883 194.092 330.798 193.911C330.718 193.725 330.541 193.552 330.267 193.393C329.998 193.23 329.588 193.08 329.037 192.944C328.573 192.824 328.154 192.687 327.781 192.533C327.413 192.381 327.101 192.202 326.844 191.997C326.593 191.792 326.404 191.556 326.275 191.289C326.147 191.023 326.091 190.715 326.108 190.366C326.123 190.033 326.211 189.722 326.371 189.432C326.535 189.143 326.759 188.89 327.04 188.674C327.326 188.458 327.665 188.294 328.056 188.182C328.447 188.07 328.88 188.025 329.353 188.048C330.029 188.08 330.601 188.226 331.069 188.488C331.536 188.75 331.888 189.087 332.124 189.5C332.36 189.907 332.467 190.353 332.444 190.837L331 190.769C331.011 190.535 330.952 190.305 330.822 190.08C330.697 189.85 330.505 189.656 330.247 189.498C329.994 189.34 329.677 189.252 329.297 189.234C328.897 189.215 328.569 189.262 328.313 189.375C328.063 189.483 327.876 189.628 327.753 189.81C327.635 189.992 327.571 190.188 327.561 190.396C327.554 190.552 327.573 190.693 327.619 190.821C327.671 190.943 327.764 191.06 327.9 191.17C328.036 191.276 328.229 191.379 328.48 191.479C328.731 191.58 329.052 191.683 329.443 191.79C330.127 191.979 330.688 192.193 331.125 192.433C331.563 192.672 331.883 192.956 332.086 193.284C332.29 193.611 332.381 194.001 332.36 194.454C332.342 194.823 332.248 195.158 332.078 195.457C331.913 195.757 331.679 196.012 331.377 196.222C331.081 196.427 330.729 196.583 330.323 196.689C329.922 196.79 329.474 196.829 328.98 196.805C328.236 196.77 327.613 196.608 327.11 196.319C326.608 196.029 326.234 195.667 325.988 195.233C325.743 194.799 325.631 194.348 325.653 193.88L327.104 193.948C327.107 194.345 327.206 194.665 327.403 194.909C327.601 195.148 327.848 195.323 328.145 195.437C328.442 195.544 328.739 195.605 329.036 195.619C329.431 195.638 329.764 195.601 330.034 195.51C330.31 195.419 330.522 195.285 330.671 195.11C330.82 194.934 330.9 194.729 330.911 194.495ZM337.642 197.213C337.054 197.186 336.526 197.062 336.056 196.841C335.592 196.616 335.197 196.313 334.871 195.933C334.55 195.553 334.31 195.109 334.152 194.601C333.993 194.093 333.928 193.542 333.956 192.949L333.971 192.621C334.004 191.935 334.134 191.328 334.362 190.802C334.59 190.27 334.888 189.826 335.254 189.467C335.62 189.109 336.029 188.844 336.48 188.673C336.931 188.501 337.394 188.426 337.867 188.449C338.471 188.477 338.986 188.605 339.413 188.834C339.846 189.063 340.193 189.371 340.457 189.759C340.72 190.142 340.908 190.589 341.019 191.1C341.131 191.606 341.173 192.155 341.145 192.748L341.115 193.396L334.809 193.099L334.865 191.921L339.726 192.149L339.732 192.04C339.728 191.665 339.667 191.297 339.549 190.937C339.435 190.577 339.241 190.276 338.966 190.033C338.69 189.791 338.306 189.658 337.811 189.635C337.484 189.619 337.178 189.675 336.896 189.803C336.614 189.925 336.368 190.117 336.157 190.378C335.947 190.639 335.778 190.962 335.65 191.347C335.523 191.733 335.447 192.18 335.423 192.69L335.407 193.018C335.388 193.418 335.425 193.798 335.518 194.157C335.616 194.511 335.765 194.826 335.966 195.101C336.172 195.376 336.425 195.597 336.725 195.762C337.03 195.928 337.38 196.02 337.776 196.039C338.286 196.063 338.722 195.979 339.086 195.787C339.449 195.596 339.772 195.332 340.054 194.996L340.895 195.732C340.7 195.999 340.456 196.251 340.163 196.487C339.871 196.724 339.515 196.91 339.097 197.047C338.684 197.184 338.199 197.239 337.642 197.213Z" fill="#004CDF"/>
<path fill-rule="evenodd" clip-rule="evenodd" d="M388.32 198.104C388.091 198.313 387.735 198.297 387.526 198.067L382.067 192.069C381.858 191.839 381.875 191.483 382.104 191.274L382.382 191.022C382.611 190.812 382.967 190.829 383.176 191.059L388.004 196.364L393.309 191.536C393.539 191.327 393.894 191.344 394.104 191.573L394.356 191.851C394.565 192.081 394.548 192.436 394.319 192.645L388.32 198.104Z" fill="#004CDF"/>
</svg>
